<svg version="1.1" xmlns="http://www.w3.org/2000/svg" xmlns:xlink="http://www.w3.org/1999/xlink" width="150.8333" height="275.97016" viewBox="0,0,150.8333,275.97016"><g transform="translate(-164.27399,-37.64237)"><g data-paper-data="{&quot;isPaintingLayer&quot;:true}" stroke-miterlimit="10" stroke-dasharray="" stroke-dashoffset="0" style="mix-blend-mode: normal"><path d="M178.40901,313.61253v-267.22501h123.18203v267.22501z" fill-opacity="0.01" fill="#000000" fill-rule="nonzero" stroke="none" stroke-width="0" stroke-linecap="butt" stroke-linejoin="miter"/><path d="M210.41676,307.50001l13.62477,-131.8421l33.99545,-0.15789l12.2131,132z" fill="#babebf" fill-rule="nonzero" stroke="#000000" stroke-width="2" stroke-linecap="butt" stroke-linejoin="miter"/><path d="M216.26634,260.23384l8.45591,-81.82486l32.57503,-0.15129l7.60398,82.1843c0,0 -14.59301,4.84164 -24.23451,4.80038c-9.6415,-0.04126 -24.40041,-5.00852 -24.40041,-5.00852z" fill="#a1a5a6" fill-rule="nonzero" stroke="#000000" stroke-width="0" stroke-linecap="butt" stroke-linejoin="miter"/><g fill-rule="nonzero" stroke="#000000" stroke-width="2" stroke-linecap="butt" stroke-linejoin="miter"><path d="M179.27399,126.30904v-70l7.33332,0.00001v70z" fill="#ffe9b3"/><path d="M165.27399,56.30904c0,-9.75702 7.90964,-17.66667 17.66666,-17.66667c9.75702,0 17.66667,7.90964 17.66667,17.66667c0,9.75702 -7.90964,17.66667 -17.66667,17.66667c-9.75702,0 -17.66666,-7.90964 -17.66666,-17.66667z" fill="#ffc633"/></g><g fill-rule="nonzero" stroke="#000000" stroke-width="2" stroke-linecap="butt" stroke-linejoin="miter"><path d="M292.77396,126.30904v-70l7.33333,0.00001v70z" fill="#ffe9b3"/><path d="M278.77396,56.30904c0,-9.75702 7.90964,-17.66667 17.66666,-17.66667c9.75702,0 17.66667,7.90964 17.66667,17.66667c0,9.75702 -7.90965,17.66667 -17.66667,17.66667c-9.75702,0 -17.66666,-7.90964 -17.66666,-17.66667z" fill="#ffc633"/></g><path d="M215.12523,244.73923l7.58416,-69.08131l36.11546,-0.15789l6.82766,69.46209c0,0 -1.63411,6.69929 -25.4124,6.56159c-22.03251,-0.12759 -25.11488,-6.78449 -25.11488,-6.78449z" fill="#ffc633" fill-rule="nonzero" stroke="#000000" stroke-width="2" stroke-linecap="butt" stroke-linejoin="miter"/><path d="M216.61546,221.60688l5.27751,-45.94896l37.78325,-0.15789l4.67444,45.45686c0,0 -7.00642,7.16153 -24.11741,7.06682c-17.11099,-0.09472 -23.61779,-6.41683 -23.61779,-6.41683z" fill="#ffc633" fill-rule="nonzero" stroke="#000000" stroke-width="2" stroke-linecap="butt" stroke-linejoin="miter"/><path d="M219.70036,204.11269l3.12142,-26.32765l35.83075,-0.14203l2.76735,26.1059c0,0 -7.51543,4.19603 -21.55904,4.50964c-12.48458,0.27879 -20.16049,-4.14586 -20.16049,-4.14586z" fill="#8c6c1c" fill-rule="nonzero" stroke="#000000" stroke-width="0" stroke-linecap="butt" stroke-linejoin="miter"/><path d="M175.84004,136.84617c0,-33.30185 28.7599,-60.29833 64.23702,-60.29833c35.47712,0 64.23702,26.99649 64.23702,60.29833c0,33.30185 -28.7599,60.29833 -64.23702,60.29833c-35.47712,0 -64.23702,-26.99649 -64.23702,-60.29833z" fill="#babebf" fill-rule="nonzero" stroke="#000000" stroke-width="2" stroke-linecap="butt" stroke-linejoin="miter"/><path d="M176.5631,136.90003c0,-0.72799 5.20666,55.91939 63.36046,56.93429c55.56352,0.9697 63.51358,-57.95314 63.51358,-56.93429c0,32.80479 -28.40173,59.39833 -63.43702,59.39833c-35.03529,0 -63.43702,-26.59354 -63.43702,-59.39833z" fill="#a1a5a6" fill-rule="nonzero" stroke="#000000" stroke-width="0" stroke-linecap="butt" stroke-linejoin="miter"/><path d="M219.82598,160.17467h40.34822c2.4445,0 4.41244,1.96795 4.41244,4.41244v18.32584c0,2.44449 -1.96795,4.41244 -4.41244,4.41244h-40.34821c-2.44449,0 -4.41245,-1.96795 -4.41245,-4.41244v-18.32584c0,-2.44449 1.96795,-4.41244 4.41245,-4.41244z" fill="#000000" fill-rule="evenodd" stroke="#000000" stroke-width="2" stroke-linecap="round" stroke-linejoin="round"/><path d="M186.86784,100.24681h106.26448c6.43804,0 11.62097,5.18296 11.62097,11.62098v48.26449c0,6.43802 -5.18296,11.62098 -11.62097,11.62098h-106.26447c-6.43802,0 -11.62099,-5.18296 -11.62099,-11.62098v-48.26449c0,-6.43801 5.18297,-11.62098 11.62099,-11.62098z" fill="#ffc633" fill-rule="evenodd" stroke="#000000" stroke-width="2" stroke-linecap="round" stroke-linejoin="round"/><path d="M194.79968,105.58422h90.40082c5.47694,0 9.88614,4.40922 9.88614,9.88614v41.05934c0,5.47692 -4.40922,9.88614 -9.88614,9.88614h-90.4008c-5.47692,0 -9.88616,-4.40922 -9.88616,-9.88614v-41.05934c0,-5.47692 4.40923,-9.88614 9.88616,-9.88614z" fill="#000000" fill-rule="evenodd" stroke="#000000" stroke-width="2" stroke-linecap="round" stroke-linejoin="round"/><g fill="#000000" fill-rule="nonzero" stroke="#4df6ff" stroke-width="0.5" stroke-linejoin="miter"><g stroke-linecap="butt"><path d="M199.90437,140.52704v-12.28623h1.28713v12.28623z"/><path d="M197.44712,128.24083c0,-1.71253 1.38828,-3.10081 3.10081,-3.10081c1.71253,0 3.10081,1.38828 3.10081,3.10081c0,1.71253 -1.38828,3.10081 -3.10081,3.10081c-1.71253,0 -3.10081,-1.38828 -3.10081,-3.10081z"/></g><path d="M213.75878,141.43557c0.57101,-1.38894 1.93742,-2.3669 3.53224,-2.3669c2.10835,0 9.60958,3.81751 9.60958,3.81751" data-paper-data="{&quot;index&quot;:null}" stroke-linecap="butt"/><g stroke-linecap="butt"><path d="M219.8256,140.52704v-12.28623h1.28713v12.28623z"/><path d="M217.36836,128.24083c0,-1.71253 1.38828,-3.10081 3.10081,-3.10081c1.71253,0 3.10081,1.38828 3.10081,3.10081c0,1.71253 -1.38828,3.10081 -3.10081,3.10081c-1.71253,0 -3.10081,-1.38828 -3.10081,-3.10081z"/></g><path d="M194.40061,142.88616c0,0 7.50123,-3.81751 9.60958,-3.81751c1.56942,0 2.91764,0.94705 3.50435,2.30083" data-paper-data="{&quot;index&quot;:null}" stroke-linecap="butt"/><path d="M199.30164,142.26538c0,-5.84506 5.04787,-10.58341 11.27472,-10.58341c6.22686,0 11.27472,4.73836 11.27472,10.58341" stroke-linecap="butt"/><path d="M206.73194,133.63204l5.83596,-3.42259l-0.57043,2.41337l3.94914,-1.05311l-2.545,2.72052" stroke-linecap="round"/></g><g fill="#000000" fill-rule="nonzero" stroke="#4df6ff" stroke-width="0.5" stroke-linecap="butt" stroke-linejoin="miter"><path d="M258.62672,142.5272c0,-5.57522 0.80131,-10.01907 10.59576,-10.09482c11.15734,-0.08629 10.59576,4.51961 10.59576,10.09482c0,0 -21.19151,0.23048 -21.19151,0z"/><path d="M253.92988,143.44641l0.82237,-1.45497l29.51054,0.06326l0.50608,1.39171z"/></g><g fill="#4df6ff" fill-rule="nonzero" stroke="none" stroke-width="0" stroke-linecap="butt" stroke-linejoin="miter"><path d="M229.36652,131.59165c-0.71035,-2.62195 1.39473,-5.5431 4.70185,-6.52459c3.30712,-0.98148 6.56393,3.90295 7.2743,6.5249c0.71035,2.62195 -1.37911,15.23429 -1.37911,15.23429c0,0 -9.88667,-12.61266 -10.59704,-15.23461z"/><path d="M240.03645,146.82626c0,0 -2.08947,-12.61234 -1.37911,-15.23429c0.71035,-2.62195 3.96718,-7.50638 7.2743,-6.5249c3.30712,0.98148 5.41222,3.90264 4.70185,6.52459c-0.71035,2.62195 -10.59704,15.23461 -10.59704,15.23461z" data-paper-data="{&quot;index&quot;:null}"/></g></g></g></svg>