<svg version="1.1" xmlns="http://www.w3.org/2000/svg" xmlns:xlink="http://www.w3.org/1999/xlink" width="139.29075" height="267.22501" viewBox="0,0,139.29075,267.22501"><g transform="translate(-170.68268,-46.38751)"><g data-paper-data="{&quot;isPaintingLayer&quot;:true}" stroke-miterlimit="10" stroke-dasharray="" stroke-dashoffset="0" style="mix-blend-mode: normal"><path d="M179.28375,313.61252v-267.22501h123.18203v267.22501z" fill-opacity="0.01" fill="#000000" fill-rule="nonzero" stroke="none" stroke-width="0" stroke-linecap="butt" stroke-linejoin="miter"/><path d="M206.93465,307.5l15.14285,-131.8421l37.78325,-0.15789l13.57389,132z" fill="#ffc633" fill-rule="nonzero" stroke="#000000" stroke-width="2" stroke-linecap="butt" stroke-linejoin="miter"/><path d="M219.70029,204.11263l3.12142,-26.32765l35.83075,-0.14203l2.76735,26.1059c0,0 -7.51543,4.19603 -21.55904,4.50964c-12.48458,0.27879 -20.16049,-4.14586 -20.16049,-4.14586z" fill="#e6b12e" fill-rule="nonzero" stroke="#000000" stroke-width="0" stroke-linecap="butt" stroke-linejoin="miter"/><path d="M176.02455,137.58451c0,-33.30185 28.7599,-60.29833 64.23702,-60.29833c35.47712,0 64.23702,26.99649 64.23702,60.29833c0,33.30185 -28.7599,60.29833 -64.23702,60.29833c-35.47712,0 -64.23702,-26.99649 -64.23702,-60.29833z" fill="#ffc633" fill-rule="nonzero" stroke="#000000" stroke-width="2" stroke-linecap="butt" stroke-linejoin="miter"/><path d="M176.74761,137.63835c0,-0.72799 5.20666,55.91939 63.36046,56.93429c55.56352,0.9697 63.51358,-57.95314 63.51358,-56.93429c0,32.80479 -28.40173,59.39833 -63.43702,59.39833c-35.03529,0 -63.43702,-26.59354 -63.43702,-59.39833z" fill="#e6b12e" fill-rule="nonzero" stroke="#000000" stroke-width="0" stroke-linecap="butt" stroke-linejoin="miter"/><path d="M189.57478,138.01398c0,-12.968 10.51265,-23.48065 23.48065,-23.48065c12.968,0 23.48065,10.51265 23.48065,23.48065c0,12.968 -10.51265,23.48065 -23.48065,23.48065c-12.968,0 -23.48065,-10.51265 -23.48065,-23.48065z" fill="#ffffff" fill-rule="nonzero" stroke="#000000" stroke-width="2" stroke-linecap="butt" stroke-linejoin="miter"/><path d="M189.072,137.73835c0,-9.12808 7.39976,-16.52784 16.52783,-16.52784c9.12808,0 16.52784,7.39977 16.52784,16.52784c0,9.12808 -7.39977,16.52784 -16.52784,16.52784c-9.12808,0 -16.52783,-7.39977 -16.52783,-16.52784z" fill="#000000" fill-rule="nonzero" stroke="none" stroke-width="0" stroke-linecap="butt" stroke-linejoin="miter"/><path d="M252.80123,178.13314h-25.10959" fill="none" fill-rule="nonzero" stroke="#000000" stroke-width="2" stroke-linecap="round" stroke-linejoin="miter"/><path d="M267.31385,161.49462c-12.968,0 -23.48065,-10.51265 -23.48065,-23.48065c0,-12.968 10.51265,-23.48065 23.48065,-23.48065c12.968,0 23.48065,10.51265 23.48065,23.48065c0,12.968 -10.51265,23.48065 -23.48065,23.48065z" data-paper-data="{&quot;index&quot;:null}" fill="#ffffff" fill-rule="nonzero" stroke="#000000" stroke-width="2" stroke-linecap="butt" stroke-linejoin="miter"/><path d="M259.63314,154.26619c-9.12807,0 -16.52783,-7.39977 -16.52783,-16.52784c0,-9.12808 7.39977,-16.52784 16.52783,-16.52784c9.12807,0 16.52783,7.39977 16.52783,16.52784c0,9.12808 -7.39977,16.52784 -16.52783,16.52784z" data-paper-data="{&quot;index&quot;:null}" fill="#000000" fill-rule="nonzero" stroke="none" stroke-width="0" stroke-linecap="butt" stroke-linejoin="miter"/><path d="M189.57478,138.01398c0,-12.968 10.51265,-23.48065 23.48065,-23.48065c12.968,0 23.48065,10.51265 23.48065,23.48065c0,0 -46.96131,1.23155 -46.96131,0z" fill="#ffc533" fill-rule="nonzero" stroke="#000000" stroke-width="2" stroke-linecap="butt" stroke-linejoin="miter"/><path d="M243.83321,138.01398c0,-12.968 10.51265,-23.48065 23.48065,-23.48065c12.968,0 23.48065,10.51265 23.48065,23.48065c0,1.2138 -46.96131,0 -46.96131,0z" data-paper-data="{&quot;index&quot;:null}" fill="#ffc533" fill-rule="nonzero" stroke="#000000" stroke-width="2" stroke-linecap="butt" stroke-linejoin="miter"/><g stroke="#000000"><path d="M234.43268,99.41717h-59.75c0,0 -3.94677,-0.84542 -4,-5.5c-0.04866,-4.25441 4,-5.5 4,-5.5h59.75z" fill="#ffc633" fill-rule="nonzero" stroke-width="2" stroke-linecap="butt" stroke-linejoin="miter"/><path d="M245.22299,88.41717h59.75c0,0 4.04866,1.24559 4,5.5c-0.05323,4.65458 -4,5.5 -4,5.5h-59.75z" data-paper-data="{&quot;index&quot;:null}" fill="#ffc633" fill-rule="nonzero" stroke-width="2" stroke-linecap="butt" stroke-linejoin="miter"/><path d="M187.05237,66.64254h106.26448c6.43804,0 11.62097,5.18296 11.62097,11.62098v32.93116c0,6.43802 -5.18296,11.62098 -11.62097,11.62098h-106.26447c-6.43802,0 -11.62099,-5.18296 -11.62099,-11.62098v-32.93116c0,-6.43801 5.18297,-11.62098 11.62099,-11.62098z" fill="#ffc633" fill-rule="evenodd" stroke-width="2" stroke-linecap="round" stroke-linejoin="round"/><path d="M197.69362,72.42479h85.64864c5.18902,0 9.36645,4.17744 9.36645,9.36645v26.54235c0,5.18901 -4.17744,9.36645 -9.36645,9.36645h-85.64864c-5.18901,0 -9.36646,-4.17744 -9.36646,-9.36645v-26.54235c0,-5.18901 4.17745,-9.36645 9.36646,-9.36645z" fill="#000000" fill-rule="evenodd" stroke-width="0" stroke-linecap="round" stroke-linejoin="round"/><path d="M197.36029,72.09146h85.64864c5.18902,0 9.36645,4.17744 9.36645,9.36645v26.54235c0,5.18901 -4.17744,9.36645 -9.36645,9.36645h-85.64864c-5.18901,0 -9.36646,-4.17744 -9.36646,-9.36645v-26.54235c0,-5.18901 4.17745,-9.36645 9.36646,-9.36645z" fill="none" fill-rule="evenodd" stroke-width="2" stroke-linecap="round" stroke-linejoin="round"/></g></g></g></svg>