<svg version="1.1" xmlns="http://www.w3.org/2000/svg" xmlns:xlink="http://www.w3.org/1999/xlink" width="138.53363" height="303.5729" viewBox="0,0,138.53363,303.5729"><g transform="translate(-170.78038,-11.01646)"><g data-paper-data="{&quot;isPaintingLayer&quot;:true}" fill-rule="nonzero" stroke-linejoin="miter" stroke-miterlimit="10" stroke-dasharray="" stroke-dashoffset="0" style="mix-blend-mode: normal"><path d="M184.08626,118.74541c0,0 -29.34739,-102.91997 2.59948,-106.60088c32.62921,-3.75954 30.09158,76.49985 30.09158,76.49985" fill="#ff80ee" stroke="#000000" stroke-width="2" stroke-linecap="round"/><path d="M263.31706,88.64438c0,0 -2.53764,-80.25939 30.09158,-76.49985c31.94687,3.68091 2.59948,106.60088 2.59948,106.60088" data-paper-data="{&quot;index&quot;:null}" fill="#ff80ee" stroke="#000000" stroke-width="2" stroke-linecap="round"/><path d="M179.28374,314.58936v-267.22501h123.18203v267.22501z" fill-opacity="0.01" fill="#000000" stroke="none" stroke-width="0" stroke-linecap="butt"/><path d="M206.75005,307.50003l15.14285,-131.8421l37.78325,-0.15789l13.57389,132z" fill="#ff80ee" stroke="#000000" stroke-width="2" stroke-linecap="butt"/><path d="M219.70028,204.11266l3.12142,-26.32765l35.83075,-0.14203l2.76735,26.1059c0,0 -7.51543,4.19603 -21.55904,4.50964c-12.48458,0.27879 -20.16049,-4.14586 -20.16049,-4.14586z" fill="#e673d6" stroke="#000000" stroke-width="0" stroke-linecap="butt"/><path d="M175.83996,140.16739c0,-33.30185 28.7599,-60.29833 64.23702,-60.29833c35.47712,0 64.23702,26.99649 64.23702,60.29833c0,33.30185 -28.7599,60.29833 -64.23702,60.29833c-35.47712,0 -64.23702,-26.99649 -64.23702,-60.29833z" fill="#ff80ee" stroke="#000000" stroke-width="2" stroke-linecap="butt"/><path d="M176.56303,140.22125c0,-0.72799 5.20666,55.91939 63.36046,56.93429c55.56352,0.9697 63.51358,-57.95314 63.51358,-56.93429c0,32.80479 -28.40173,59.39833 -63.43702,59.39833c-35.03529,0 -63.43702,-26.59354 -63.43702,-59.39833z" fill="#e673d6" stroke="#000000" stroke-width="0" stroke-linecap="butt"/><path d="M212.87082,117.11619c12.968,0 23.48065,10.51265 23.48065,23.48065c0,12.968 -10.51265,23.48065 -23.48065,23.48065c-12.968,0 -23.48065,-10.51265 -23.48065,-23.48065c0,-12.968 10.51265,-23.48065 23.48065,-23.48065z" data-paper-data="{&quot;index&quot;:null}" fill="#ff00dd" stroke="#000000" stroke-width="2" stroke-linecap="butt"/><path d="M290.60991,140.59688c0,12.968 -10.51265,23.48065 -23.48065,23.48065c-12.968,0 -23.48065,-10.51265 -23.48065,-23.48065c0,-12.968 10.51265,-23.48065 23.48065,-23.48065c12.968,0 23.48065,10.51265 23.48065,23.48065z" data-paper-data="{&quot;index&quot;:null}" fill="#ff00dd" stroke="#000000" stroke-width="2" stroke-linecap="butt"/><path d="M266.17708,105.45945c3.94124,0.87081 11.97788,2.07284 11.97788,2.07284c0,0 -7.22044,0.62086 -12.32391,-0.50673c-5.10346,-1.1276 -11.87953,-4.84096 -11.87953,-4.84096c0,0 8.10681,2.36482 12.22556,3.27485z" data-paper-data="{&quot;index&quot;:null}" fill="#000000" stroke="none" stroke-width="0" stroke-linecap="butt"/><path d="M225.40624,102.1846c0,0 -6.77607,3.71336 -11.87953,4.84096c-5.10347,1.1276 -12.32391,0.50673 -12.32391,0.50673c0,0 8.03664,-1.20202 11.97788,-2.07284c4.11875,-0.91003 12.22556,-3.27485 12.22556,-3.27485z" data-paper-data="{&quot;index&quot;:null}" fill="#000000" stroke="none" stroke-width="0" stroke-linecap="butt"/><path d="M185.73891,137.69694l3.6,2.6" fill="none" stroke="#000000" stroke-width="2" stroke-linecap="round"/><path d="M290.13891,140.09692l4.2,-3.4" fill="none" stroke="#000000" stroke-width="2" stroke-linecap="round"/><path d="M290.60991,140.59684c0,12.96801 -10.51265,23.48065 -23.48066,23.48065c-12.96801,0 -23.48065,-10.51264 -23.48065,-23.48065c0,0 3.33299,13.73134 23.92315,13.37798c17.62424,-0.35135 23.03816,-13.98602 23.03816,-13.37798z" data-paper-data="{&quot;index&quot;:null}" fill="#ff00dd" stroke="#000000" stroke-width="2" stroke-linecap="butt"/><path d="M236.22259,140.59684c0,12.96801 -10.51265,23.48065 -23.48066,23.48065c-12.96801,0 -23.48065,-10.51264 -23.48065,-23.48065c0,0 3.33299,13.73134 23.92315,13.37798c17.62424,-0.35135 23.03816,-13.98602 23.03816,-13.37798z" data-paper-data="{&quot;index&quot;:null}" fill="#ff00dd" stroke="#000000" stroke-width="2" stroke-linecap="butt"/><g fill="#ff00dd" stroke="#000000" stroke-width="2" stroke-linecap="butt"><path d="M212.25694,88.75858c-3.15626,-7.04973 2.9828,-9.07336 2.9828,-9.07336c0,0 -4.78658,-2.16484 -3.4828,-8.86567c1.67551,-8.61136 24.16667,5.66496 24.16667,5.66496l-0.16667,7.55329c0,0 -20.59947,11.19933 -23.5,4.72079z"/><path d="M246.02144,84.03779l-0.16667,-7.55329c0,0 22.49115,-14.27632 24.16666,-5.66496c1.30378,6.70083 -3.4828,8.86567 -3.4828,8.86567c0,0 6.13906,2.02363 2.9828,9.07336c-2.90053,6.47853 -23.5,-4.72079 -23.5,-4.72079z" data-paper-data="{&quot;index&quot;:null}"/><path d="M233.00694,80.01388c0,-4.2802 3.4698,-7.75 7.75,-7.75c4.2802,0 7.75,3.4698 7.75,7.75c0,4.2802 -3.4698,7.75 -7.75,7.75c-4.2802,0 -7.75,-3.4698 -7.75,-7.75z"/></g><path d="M234.52734,177.50886c0,0 3.16093,0.69079 6.93868,0.69079c3.77776,0 6.74176,-0.69079 6.74176,-0.69079c0,0 -1.29421,12.40616 -5.07196,12.40616c-3.77776,0 -8.60849,-12.40616 -8.60849,-12.40616z" data-paper-data="{&quot;index&quot;:null}" fill="#000000" stroke="none" stroke-width="0" stroke-linecap="butt"/></g></g></svg>