<svg version="1.1" xmlns="http://www.w3.org/2000/svg" xmlns:xlink="http://www.w3.org/1999/xlink" width="144" height="321.11249" viewBox="0,0,144,321.11249"><g transform="translate(-168,-46.38752)"><g data-paper-data="{&quot;isPaintingLayer&quot;:true}" stroke-miterlimit="10" stroke-dasharray="" stroke-dashoffset="0" style="mix-blend-mode: normal"><path d="M232.90004,210.65012l-0.57166,-32.75h14.2l0.57166,32.75z" data-paper-data="{&quot;index&quot;:null}" fill="#a1a5a6" fill-rule="nonzero" stroke="#000000" stroke-width="2" stroke-linecap="butt" stroke-linejoin="miter"/><path d="M211.69937,119.06243h53.404c8.92534,0 16.23612,7.18538 16.39192,16.1107l0.7969,45.654c0.15579,8.92532 -6.90413,16.1107 -15.82948,16.1107h-53.404c-8.92532,0 -16.23612,-7.18538 -16.39192,-16.1107l-0.7969,-45.654c-0.15579,-8.92532 6.90416,-16.1107 15.82948,-16.1107z" data-paper-data="{&quot;index&quot;:null}" fill="#babebf" fill-rule="evenodd" stroke="#000000" stroke-width="2" stroke-linecap="round" stroke-linejoin="round"/><path d="M216.81596,126.33835h43.4249c7.25755,0 13.20224,5.84271 13.32892,13.10025l0.64799,37.12307c0.12668,7.25753 -5.61403,13.10025 -12.87158,13.10025h-43.4249c-7.25753,0 -13.20224,-5.84271 -13.32892,-13.10025l-0.64799,-37.12307c-0.12668,-7.25753 5.61404,-13.10025 12.87158,-13.10025z" data-paper-data="{&quot;index&quot;:null}" fill="#000000" fill-rule="evenodd" stroke="#000000" stroke-width="2" stroke-linecap="round" stroke-linejoin="round"/><g data-paper-data="{&quot;index&quot;:null}" fill-rule="nonzero" stroke="#000000" stroke-width="2" stroke-linecap="butt" stroke-linejoin="miter"><path d="M238.50944,86.66416l-0.30401,-17.41667h5.25l0.30401,17.41667z" fill="#fc0000"/><path d="M207.30817,118.09935c-0.25788,-14.77362 4.57293,-34.19218 33.28589,-33.75c32.46737,0.5 34.20624,18.97638 34.46411,33.75c0.02091,1.19809 -16.59192,5.25 -33.78336,5.25c-17.13342,0 -33.94493,-4.0061 -33.96664,-5.25z" fill="#fce600"/><path d="M255.29196,102.84935c-3.39552,-16.2123 -16.41506,-18.52644 -14.69792,-18.5c32.46737,0.5 34.20624,18.97638 34.46411,33.75c0.01378,0.78948 -7.19511,2.81815 -17.03283,4.11006c0,0 -1.2796,-12.41891 -2.73336,-19.36006z" fill="#0b00ff"/><path d="M207.30817,118.09935c-0.25788,-14.77362 4.57293,-34.19218 33.28589,-33.75c2.08008,0.03203 -11.83886,5.5649 -13.01717,20.5c-0.68602,8.69544 0.4261,17.25 0.4261,17.25c0,0 -20.67311,-2.7561 -20.69482,-4z" fill="#fc0000"/><path d="M182.54819,131.84935c0,0 10.69411,-8.1292 15.58539,-10.85247c3.1879,-1.7749 10.90715,-3.89753 10.90715,-3.89753c0,0 16.58798,-4.25 24.67582,-4.25c9.94299,0 29.38091,7.5 29.38091,7.5c0,0 -7.76022,2.09852 -11.30963,3.77502c-5.07072,2.39505 -16.21346,9.22498 -16.21346,9.22498c0,0 -14.95795,-4.75 -23.83291,-4.75c-9.49924,0 -29.19327,3.25 -29.19327,3.25z" fill="#00ff15"/><path d="M219.83712,78.6873c0,0 -0.79332,-1.98771 -0.81099,-3c-0.01478,-0.84695 0.71207,-2.66666 0.71207,-2.66666l21.17313,3.33334l21.43607,-3.33334c0,0 0.66566,1.91828 0.68164,2.83334c0.01694,0.97056 -0.58272,2.83333 -0.58272,2.83333l-21.53207,-2.16666z" fill="#0b00ff"/></g><g fill="none" fill-rule="nonzero" stroke="#ffffff" stroke-linecap="round" stroke-linejoin="miter"><path d="M205.13174,160.90487l2.92197,3.71429l0.20342,-4.71429l3.07481,4.28571l0.06057,-4.71429l3.23263,5.14286" data-paper-data="{&quot;index&quot;:null}" stroke-width="0.5"/><path d="M255.27457,160.90487l2.92197,3.71429l0.20342,-4.71429l3.07481,4.28571l0.06057,-4.71429l3.23263,5.14286" data-paper-data="{&quot;index&quot;:null}" stroke-width="0.5"/><path d="M229.82466,184.25001l5.02822,-5.5l5.40082,5.5" stroke-width="1"/><g stroke-width="1"><path d="M210.7448,143.51395l47.14752,18"/><path d="M257.57813,143.51395l-46.51914,18" data-paper-data="{&quot;index&quot;:null}"/></g></g><path d="M168,367.50001v-316h144v316z" data-paper-data="{&quot;index&quot;:null}" fill="none" fill-rule="nonzero" stroke="none" stroke-width="0" stroke-linecap="butt" stroke-linejoin="miter"/><path d="M178.40908,313.61253v-267.22501h123.18203v267.22501z" data-paper-data="{&quot;index&quot;:null}" fill-opacity="0.01" fill="#000000" fill-rule="nonzero" stroke="none" stroke-width="0" stroke-linecap="butt" stroke-linejoin="miter"/><path d="M232.04357,360.79702c0,0 -4.67938,-21.11975 1.4357,-46.3743c3.6733,-15.17028 18.69854,-35.02836 20.03884,-43.72523c2.35721,-15.29534 -2.13056,-43.75197 -2.13056,-43.75197l5.92999,0.91389c0,0 4.6573,30.36412 2.66854,43.26865c-1.51969,9.86086 -16.48135,27.03455 -20.87867,44.52962c-5.81091,23.11915 -1.13385,46.05324 -1.13385,46.05324z" data-paper-data="{&quot;index&quot;:null}" fill="#000000" fill-rule="nonzero" stroke="#000000" stroke-width="2" stroke-linecap="butt" stroke-linejoin="miter"/><path d="M294.00005,355.5001h-11.66667v-130.33333h11.66667z" data-paper-data="{&quot;index&quot;:null}" fill="#653600" fill-rule="nonzero" stroke="#000000" stroke-width="2" stroke-linecap="butt" stroke-linejoin="miter"/><path d="M199.00005,354.83346h-11.66666v-130.33333h11.66666z" data-paper-data="{&quot;index&quot;:null}" fill="#653600" fill-rule="nonzero" stroke="#000000" stroke-width="2" stroke-linecap="butt" stroke-linejoin="miter"/><path d="M174.83341,235.6668v-19.33333h130.33333v19.33333z" data-paper-data="{&quot;index&quot;:null}" fill="#804400" fill-rule="nonzero" stroke="#000000" stroke-width="2" stroke-linecap="butt" stroke-linejoin="miter"/><path d="M204.50005,219.20013l5.73764,-11.4h61.26981l5.94255,11.4z" data-paper-data="{&quot;index&quot;:null}" fill="#babebf" fill-rule="nonzero" stroke="#000000" stroke-width="2" stroke-linecap="butt" stroke-linejoin="miter"/></g></g></svg>