<svg version="1.1" xmlns="http://www.w3.org/2000/svg" xmlns:xlink="http://www.w3.org/1999/xlink" width="158.74152" height="296.99037" viewBox="0,0,158.74152,296.99037"><g transform="translate(-160.32998,-16.62214)"><g data-paper-data="{&quot;isPaintingLayer&quot;:true}" fill-rule="nonzero" stroke-linecap="butt" stroke-linejoin="miter" stroke-miterlimit="10" stroke-dasharray="" stroke-dashoffset="0" style="mix-blend-mode: normal"><path d="M179.28375,313.61251v-267.22501h123.18203v267.22501z" data-paper-data="{&quot;index&quot;:null}" fill-opacity="0.01" fill="#000000" stroke="none" stroke-width="0"/><path d="M304.35841,158.9562c-4.14017,-1.52046 -12.9307,-0.62633 -12.9307,-0.62633l-1.43105,-39l22.18129,-26.33333c0,0 3.95267,3.19116 5.89355,33.33501c1.85954,28.88061 -2.13703,40.99833 -2.13703,40.99833c0,0 -7.55053,-6.89531 -11.57606,-8.37367z" data-paper-data="{&quot;index&quot;:null}" fill="#7d00b3" stroke="#000000" stroke-width="2"/><path d="M163.96033,167.32986c0,0 -3.99658,-12.11771 -2.13704,-40.99833c1.94088,-30.14385 5.89354,-33.33501 5.89354,-33.33501l22.18129,26.33333l-1.43105,39c0,0 -8.79053,-0.89413 -12.9307,0.62633c-4.02553,1.47836 -11.57605,8.37367 -11.57605,8.37367z" data-paper-data="{&quot;index&quot;:null}" fill="#7d00b3" stroke="#000000" stroke-width="2"/><path d="M206.75006,307.50001l15.14285,-131.8421l37.78325,-0.15789l13.57389,132z" data-paper-data="{&quot;index&quot;:null}" fill="#b100ff" stroke="#000000" stroke-width="2"/><path d="M219.70029,204.11264l3.12142,-26.32765l35.83075,-0.14203l2.76735,26.1059c0,0 -7.51543,4.19603 -21.55904,4.50964c-12.48458,0.27879 -20.16049,-4.14586 -20.16049,-4.14586z" data-paper-data="{&quot;index&quot;:null}" fill="#a100e6" stroke="#000000" stroke-width="0"/><path d="M175.83997,136.84617c0,-33.30185 28.7599,-60.29833 64.23702,-60.29833c35.47712,0 64.23702,26.99649 64.23702,60.29833c0,33.30185 -28.7599,60.29833 -64.23702,60.29833c-35.47712,0 -64.23702,-26.99649 -64.23702,-60.29833z" data-paper-data="{&quot;index&quot;:null}" fill="#b100ff" stroke="#000000" stroke-width="2"/><path d="M176.56303,136.89999c0,-0.72799 5.20666,55.91939 63.36046,56.93429c55.56352,0.9697 63.51358,-57.95314 63.51358,-56.93429c0,32.80479 -28.40173,59.39833 -63.43702,59.39833c-35.03529,0 -63.43702,-26.59354 -63.43702,-59.39833z" data-paper-data="{&quot;index&quot;:null}" fill="#a100e6" stroke="#000000" stroke-width="0"/><path d="M212.87083,113.76117c12.968,0 23.48065,10.51265 23.48065,23.48065c0,12.968 -10.51265,23.48065 -23.48065,23.48065c-12.968,0 -23.48065,-10.51265 -23.48065,-23.48065c0,-12.968 10.51265,-23.48065 23.48065,-23.48065z" data-paper-data="{&quot;index&quot;:null}" fill="none" stroke="#000000" stroke-width="2"/><path d="M290.60991,137.24183c0,12.968 -10.51265,23.48065 -23.48065,23.48065c-12.968,0 -23.48065,-10.51265 -23.48065,-23.48065c0,-12.968 10.51265,-23.48065 23.48065,-23.48065c12.968,0 23.48065,10.51265 23.48065,23.48065z" data-paper-data="{&quot;index&quot;:null}" fill="none" stroke="#000000" stroke-width="2"/><path d="M203.27834,86.7466c-0.90916,-5.63406 0.05873,-64.49976 0.05873,-64.49976c0,0 19.43483,55.57333 20.344,61.20739c0.90916,5.63406 -2.92113,10.93839 -8.55518,11.84755c-5.63406,0.90916 -10.93838,-2.92112 -11.84755,-8.55518z" data-paper-data="{&quot;index&quot;:null}" fill="#7d00b3" stroke="#000000" stroke-width="2"/><path d="M265.24431,95.30178c-5.63405,-0.90917 -9.46435,-6.21349 -8.55518,-11.84754c0.90917,-5.63405 20.344,-61.20739 20.344,-61.20739c0,0 0.96789,58.86571 0.05873,64.49976c-0.90916,5.63405 -6.21349,9.46434 -11.84754,8.55517z" data-paper-data="{&quot;index&quot;:null}" fill="#7d00b3" stroke="#000000" stroke-width="2"/><path d="M189.46866,137.27563c0,-0.61661 5.01655,18.16088 23.52823,17.67206c20.57094,0.15416 23.43307,-17.67205 23.43307,-17.67205c0,12.96801 -10.51264,23.48065 -23.48065,23.48065c-12.96801,0 -23.48066,-10.51264 -23.48066,-23.48065z" data-paper-data="{&quot;index&quot;:null}" fill="#b100ff" stroke="#000000" stroke-width="2"/><path d="M243.6736,137.11478c0,-0.61661 5.01655,18.16088 23.52823,17.67206c20.57094,0.15415 23.43307,-17.67206 23.43307,-17.67206c0,12.96801 -10.51264,23.48065 -23.48065,23.48065c-12.96801,0 -23.48066,-10.51264 -23.48066,-23.48065z" data-paper-data="{&quot;index&quot;:null}" fill="#b100ff" stroke="#000000" stroke-width="2"/><path d="M202.02785,102.99842c0,0 6.70895,-5.16922 11.79721,-6.36355c5.08827,-1.19433 12.33413,0.69937 12.33413,0.69937c0,0 -8.03812,-0.06028 -11.96762,0.86207c-4.10648,0.96389 -12.16372,4.80211 -12.16372,4.80211z" data-paper-data="{&quot;index&quot;:null}" fill="#000000" stroke="none" stroke-width="0"/><path d="M265.96236,98.03547c-3.9295,-0.92235 -11.96762,-0.86207 -11.96762,-0.86207c0,0 7.24586,-1.8937 12.33413,-0.69937c5.08826,1.19433 11.79721,6.36355 11.79721,6.36355c0,0 -8.05724,-3.83822 -12.16372,-4.80211z" data-paper-data="{&quot;index&quot;:null}" fill="#000000" stroke="none" stroke-width="0"/><path d="M249.18003,178.35558c1.68424,5.83517 1.09718,13.28835 0.84528,13.23298c-8.24561,-1.81243 -19.18078,-1.88275 -24.80948,-1.92726c0.50854,-11.17106 6.61626,-21.72559 14.52699,-21.72559c3.63467,0 7.70086,4.40412 9.43722,10.41986z" data-paper-data="{&quot;index&quot;:null}" fill="#000000" stroke="none" stroke-width="0"/></g></g></svg>