<svg version="1.1" xmlns="http://www.w3.org/2000/svg" xmlns:xlink="http://www.w3.org/1999/xlink" width="149.33333" height="267.22501" viewBox="0,0,149.33333,267.22501"><g transform="translate(-164.89814,-46.38751)"><g data-paper-data="{&quot;isPaintingLayer&quot;:true}" fill-rule="nonzero" stroke-linejoin="miter" stroke-miterlimit="10" stroke-dasharray="" stroke-dashoffset="0" style="mix-blend-mode: normal"><path d="M179.28375,313.61252v-267.22501h123.18203v267.22501z" fill-opacity="0.01" fill="#000000" stroke="none" stroke-width="0" stroke-linecap="butt"/><path d="M270.5648,93.10763c0,-11.78208 9.55126,-21.33333 21.33334,-21.33333c11.78208,0 21.33333,9.55126 21.33333,21.33333c0,11.78208 -9.55126,21.33333 -21.33333,21.33333c-11.78208,0 -21.33334,-9.55125 -21.33334,-21.33333z" fill="#4df6ff" stroke="#000000" stroke-width="2" stroke-linecap="butt"/><path d="M277.5648,93.44096c0,-8.10018 6.5665,-14.66666 14.66667,-14.66666c8.10017,0 14.66667,6.56649 14.66667,14.66666c0,8.10018 -6.56649,14.66667 -14.66667,14.66667c-8.10017,0 -14.66667,-6.56649 -14.66667,-14.66667z" fill="#ccfcff" stroke="#000000" stroke-width="2" stroke-linecap="butt"/><path d="M165.89814,93.10763c0,-11.78208 9.55126,-21.33333 21.33333,-21.33333c11.78207,0 21.33334,9.55126 21.33334,21.33333c0,11.78208 -9.55126,21.33333 -21.33334,21.33333c-11.78207,0 -21.33333,-9.55125 -21.33333,-21.33333z" fill="#4df6ff" stroke="#000000" stroke-width="2" stroke-linecap="butt"/><path d="M172.89814,93.44096c0,-8.10018 6.56649,-14.66666 14.66667,-14.66666c8.10018,0 14.66666,6.56649 14.66666,14.66666c0,8.10018 -6.56649,14.66667 -14.66666,14.66667c-8.10018,0 -14.66667,-6.56649 -14.66667,-14.66667z" fill="#ccfcff" stroke="#000000" stroke-width="2" stroke-linecap="butt"/><path d="M206.75006,307.5l15.14285,-131.8421l37.78325,-0.15789l13.57389,132z" fill="#4df6ff" stroke="#000000" stroke-width="2" stroke-linecap="butt"/><path d="M219.70029,204.11263l3.12142,-26.32765l35.83075,-0.14203l2.76735,26.1059c0,0 -7.51543,4.19603 -21.55904,4.50964c-12.48458,0.27879 -20.16049,-4.14586 -20.16049,-4.14586z" fill="#45dde6" stroke="#000000" stroke-width="0" stroke-linecap="butt"/><path d="M175.83997,142.17949c0,-33.30185 28.7599,-60.29833 64.23702,-60.29833c35.47712,0 64.23702,26.99649 64.23702,60.29833c0,33.30185 -28.7599,60.29833 -64.23702,60.29833c-35.47712,0 -64.23702,-26.99649 -64.23702,-60.29833z" fill="#4df6ff" stroke="#000000" stroke-width="2" stroke-linecap="butt"/><path d="M176.56303,142.23333c0,-0.72799 5.20666,55.91939 63.36046,56.93429c55.56352,0.9697 63.51358,-57.95314 63.51358,-56.93429c0,32.80479 -28.40173,59.39833 -63.43702,59.39833c-35.03529,0 -63.43702,-26.59354 -63.43702,-59.39833z" fill="#45dde6" stroke="#000000" stroke-width="0" stroke-linecap="butt"/><path d="M189.39018,142.60896c0,-12.968 10.51265,-23.48065 23.48065,-23.48065c12.968,0 23.48065,10.51265 23.48065,23.48065c0,12.968 -10.51265,23.48065 -23.48065,23.48065c-12.968,0 -23.48065,-10.51265 -23.48065,-23.48065z" fill="#4df6ff" stroke="#000000" stroke-width="2" stroke-linecap="butt"/><path d="M243.51204,186.04122h-6.90037" fill="none" stroke="#000000" stroke-width="2" stroke-linecap="round"/><path d="M267.12926,166.0896c-12.968,0 -23.48065,-10.51265 -23.48065,-23.48065c0,-12.968 10.51265,-23.48065 23.48065,-23.48065c12.968,0 23.48065,10.51265 23.48065,23.48065c0,12.968 -10.51265,23.48065 -23.48065,23.48065z" data-paper-data="{&quot;index&quot;:null}" fill="#4df6ff" stroke="#000000" stroke-width="2" stroke-linecap="butt"/><path d="M213.65703,114.98481c-4.03602,0.04722 -11.82497,2.034 -11.82497,2.034c0,0 6.58001,-3.5766 11.80621,-3.63776c5.22619,-0.06116 12.97928,3.34772 12.97928,3.34772c0,0 -8.74272,-1.79331 -12.96052,-1.74396z" data-paper-data="{&quot;index&quot;:null}" fill="#000000" stroke="none" stroke-width="0" stroke-linecap="butt"/><path d="M253.56206,117.23235c0,0 7.60966,-3.71806 12.83408,-3.86722c5.22443,-0.14916 11.94301,3.15981 11.94301,3.15981c0,0 -7.86258,-1.67178 -11.89723,-1.55659c-4.21637,0.12039 -12.87986,2.26399 -12.87986,2.26399z" data-paper-data="{&quot;index&quot;:null}" fill="#000000" stroke="none" stroke-width="0" stroke-linecap="butt"/><path d="M236.07215,88.44351c0,0 -0.31681,-11.18942 4.28605,-18.88927c6.639,-11.106 14.33538,-7.43386 14.33538,-7.43386c0,0 -6.65329,6.79884 -8.98204,11.06679c-2.20558,4.04221 -2.19806,16.53467 -2.19806,16.53467" fill="#4df6ff" stroke="#000000" stroke-width="2" stroke-linecap="round"/></g></g></svg>