<svg version="1.1" xmlns="http://www.w3.org/2000/svg" xmlns:xlink="http://www.w3.org/1999/xlink" width="189.52793" height="272.83844" viewBox="0,0,189.52793,272.83844"><g transform="translate(-140.98401,-37.66408)"><g data-paper-data="{&quot;isPaintingLayer&quot;:true}" fill-rule="nonzero" stroke-linejoin="miter" stroke-miterlimit="10" stroke-dasharray="" stroke-dashoffset="0" style="mix-blend-mode: normal"><g stroke="#000000" stroke-width="2" stroke-linecap="butt"><path d="M174.23417,128.95276l0.45819,-69.98217l7.33627,-0.1655l-0.45819,69.98217z" fill="#fff480"/><path d="M160.68673,59.28655c0.06387,-9.75453 8.02846,-17.84068 17.78941,-18.06089c9.76095,-0.22021 17.62201,7.50891 17.55814,17.26345c-0.06387,9.75453 -8.02846,17.84068 -17.78942,18.06089c-9.76095,0.22021 -17.622,-7.50891 -17.55813,-17.26345z" fill="#ffe900"/></g><path d="M251.82721,140.64552c-0.2711,-12.00914 9.24444,-21.96423 21.25358,-22.23534c12.00913,-0.2711 55.22693,20.50881 55.22693,20.50881c0,0 -42.23605,22.70901 -54.24518,22.98011c-12.00914,0.2711 -21.96423,-9.24445 -22.23534,-21.25358z" data-paper-data="{&quot;index&quot;:null}" fill="#fce600" stroke="#000000" stroke-width="2" stroke-linecap="butt"/><g stroke="#000000" stroke-width="2" stroke-linecap="butt"><path d="M287.70526,126.39118l1.47836,-69.98217l7.33869,-0.1655l-1.47836,69.98217z" fill="#fff480"/><path d="M275.17338,56.72497c0.20606,-9.75453 8.28854,-17.84068 18.05269,-18.06089c9.76416,-0.22021 17.51255,7.50891 17.30648,17.26345c-0.20606,9.75453 -8.28855,17.84068 -18.0527,18.06089c-9.76416,0.22021 -17.51254,-7.50891 -17.30647,-17.26345z" fill="#ffe900"/></g><path d="M198.41516,163.60682c-12.00913,0.2711 -55.22693,-20.50881 -55.22693,-20.50881c0,0 42.23605,-22.70901 54.24518,-22.98011c12.00914,-0.2711 21.96423,9.24445 22.23534,21.25358c0.2711,12.00914 -9.24444,21.96423 -21.25358,22.23534z" data-paper-data="{&quot;index&quot;:null}" fill="#fce600" stroke="#000000" stroke-width="2" stroke-linecap="butt"/><path d="M205.79259,309.47747l12.16345,-132.15028l37.77006,-1.01058l16.54954,131.66003z" fill="#ffe900" stroke="#000000" stroke-width="2" stroke-linecap="butt"/><path d="M216.40617,205.82418l2.52644,-26.39139l35.81842,-0.95066l3.35583,26.03679c0,0 -7.41882,4.36458 -21.45177,4.99506c-12.47511,0.56048 -20.24892,-3.6898 -20.24892,-3.6898z" fill="#e6d200" stroke="#000000" stroke-width="0" stroke-linecap="butt"/><path d="M171.03888,139.56472c-0.75159,-33.29337 27.3917,-60.93205 62.85979,-61.73274c35.46808,-0.80068 64.82994,25.53985 65.58153,58.83321c0.75159,33.29337 -27.3917,60.93205 -62.85979,61.73274c-35.46808,0.80068 -64.82994,-25.53985 -65.58153,-58.83321z" fill="#ffe900" stroke="#000000" stroke-width="2" stroke-linecap="butt"/><path d="M171.76297,139.60223c-0.01643,-0.7278 6.46738,55.78764 64.62927,55.48981c55.57125,-0.28456 62.18946,-59.37182 62.21245,-58.35323c0.74037,32.79643 -27.05393,60.0242 -62.0803,60.81491c-35.02637,0.79071 -64.02105,-25.15506 -64.76142,-57.95149z" fill="#e6d200" stroke="#000000" stroke-width="0" stroke-linecap="butt"/><path d="M184.5897,139.43833c-0.29267,-12.9647 9.98004,-23.71193 22.94473,-24.0046c12.9647,-0.29267 23.71193,9.98004 24.0046,22.94473c0.29267,12.9647 -9.98004,23.71193 -22.94473,24.0046c-12.9647,0.29267 -23.71193,-9.98004 -24.0046,-22.94473z" fill="#ffffff" stroke="#000000" stroke-width="2" stroke-linecap="butt"/><path d="M185.32795,140.70492c-0.20601,-9.12575 7.02486,-16.69064 16.1506,-16.89665c9.12575,-0.20601 16.69064,7.02487 16.89665,16.15061c0.20601,9.12575 -7.02487,16.69064 -16.15061,16.89665c-9.12575,0.20601 -16.69063,-7.02487 -16.89664,-16.15061z" fill="#000000" stroke="none" stroke-width="0" stroke-linecap="butt"/><path d="M228.25935,177.90641l15.94554,-0.35997" fill="none" stroke="#000000" stroke-width="2" stroke-linecap="round"/><path d="M262.8389,161.15849c-12.9647,0.29267 -23.71193,-9.98004 -24.0046,-22.94473c-0.29267,-12.9647 9.98004,-23.71193 22.94473,-24.0046c12.9647,-0.29267 23.71193,9.98004 24.0046,22.94473c0.29267,12.9647 -9.98004,23.71193 -22.94473,24.0046z" data-paper-data="{&quot;index&quot;:null}" fill="#ffffff" stroke="#000000" stroke-width="2" stroke-linecap="butt"/><path d="M255.48812,155.27916c-9.12574,0.20601 -16.69063,-7.02487 -16.89664,-16.15061c-0.20601,-9.12575 7.02487,-16.69064 16.1506,-16.89665c9.12574,-0.20601 16.69063,7.02487 16.89664,16.15061c0.20601,9.12575 -7.02487,16.69064 -16.1506,16.89665z" data-paper-data="{&quot;index&quot;:null}" fill="#000000" stroke="none" stroke-width="0" stroke-linecap="butt"/><path d="M196.57962,110.60192c0,0 6.59058,-5.31932 11.65059,-6.62818c5.06002,-1.30886 12.34677,0.42082 12.34677,0.42082c0,0 -8.03743,0.12115 -11.94512,1.13195c-4.08368,1.05632 -12.05224,5.07541 -12.05224,5.07541z" fill="#000000" stroke="none" stroke-width="0" stroke-linecap="butt"/><path d="M260.38945,104.3581c-3.94932,-0.83343 -11.98403,-0.59175 -11.98403,-0.59175c0,0 7.20128,-2.05675 12.3152,-0.97756c5.11392,1.07919 11.93782,6.09568 11.93782,6.09568c0,0 -8.14181,-3.6554 -12.269,-4.52636z" data-paper-data="{&quot;index&quot;:null}" fill="#000000" stroke="none" stroke-width="0" stroke-linecap="butt"/><path d="M184.51409,139.78256c-0.29267,-12.96471 9.96738,-24.27261 22.93209,-24.56528c12.96471,-0.29267 24.83327,9.95471 24.19572,23.12741c0,0 -0.0898,-0.2232 -0.31628,-0.92019c-1.28622,-3.95837 -6.8447,-17.1703 -23.71586,-17.06958c-19.02312,0.4761 -23.08173,20.04409 -23.09565,19.42763z" fill="#ffe900" stroke="#000000" stroke-width="2" stroke-linecap="butt"/><path d="M238.71252,138.55904c-0.29267,-12.96471 9.96738,-24.27261 22.93209,-24.56528c12.96471,-0.29267 24.83327,9.95471 24.19572,23.12741c0,0 -0.0898,-0.2232 -0.31628,-0.92019c-1.28622,-3.95837 -6.8447,-17.1703 -23.71586,-17.06958c-19.02312,0.4761 -23.08173,20.04409 -23.09565,19.42763z" fill="#ffe900" stroke="#000000" stroke-width="2" stroke-linecap="butt"/><path d="M212.23733,88.801l32.80144,-20.24545l-2.93885,13.81985l22.35885,-6.50627l-14.14649,15.8233" fill="#ffea00" stroke="#000000" stroke-width="2" stroke-linecap="round"/></g></g></svg>