<svg version="1.1" xmlns="http://www.w3.org/2000/svg" xmlns:xlink="http://www.w3.org/1999/xlink" width="174.5118" height="276.38148" viewBox="0,0,174.5118,276.38148"><g transform="translate(-132.45101,-40.2909)"><g data-paper-data="{&quot;isPaintingLayer&quot;:true}" fill-rule="nonzero" stroke-linejoin="miter" stroke-miterlimit="10" stroke-dasharray="" stroke-dashoffset="0" style="mix-blend-mode: normal"><path d="M233.49934,135.47298c4.31026,-11.21225 16.89373,-16.80741 28.10599,-12.49715c11.21224,4.31026 43.29952,39.94716 43.29952,39.94716c0,0 -47.69612,4.96622 -58.90835,0.65597c-11.21225,-4.31026 -16.80741,-16.89374 -12.49715,-28.10599z" data-paper-data="{&quot;index&quot;:null}" fill="#fce600" stroke="#000000" stroke-width="2" stroke-linecap="butt"/><g stroke="#000000" stroke-width="2" stroke-linecap="butt"><path d="M155.48886,134.00905l-6.96002,-69.94508l7.30719,-0.32046l6.96002,69.94508z" fill="#fff480"/><path d="M134.57872,64.67579c-0.97013,-9.74936 6.12488,-17.99846 15.84713,-18.42485c9.72225,-0.42639 18.39017,7.13138 19.3603,16.88076c0.97013,9.74936 -6.12488,17.99846 -15.84714,18.42485c-9.72225,0.42639 -18.39016,-7.13138 -19.36029,-16.88076z" fill="#ffe900"/></g><g stroke="#000000" stroke-width="2" stroke-linecap="butt"><path d="M268.58443,129.04901l-6.96002,-69.94508l7.3072,-0.32046l6.96002,69.94508z" fill="#fff480"/><path d="M247.67429,59.71575c-0.97013,-9.74936 6.12488,-17.99846 15.84713,-18.42485c9.72225,-0.42639 18.39017,7.13138 19.3603,16.88076c0.97013,9.74936 -6.12489,17.99846 -15.84714,18.42485c-9.72225,0.42639 -18.39016,-7.13138 -19.36029,-16.88076z" fill="#ffe900"/></g><path d="M191.08024,160.04089c-9.61638,7.19848 -56.86419,15.3977 -56.86419,15.3977c0,0 21.17983,-43.02323 30.79621,-50.22169c9.61639,-7.19848 23.24751,-5.23837 30.44599,4.37801c7.19848,9.61639 5.23838,23.2475 -4.37801,30.44599z" data-paper-data="{&quot;index&quot;:null}" fill="#fce600" stroke="#000000" stroke-width="2" stroke-linecap="butt"/><path d="M203.21592,315.53999l-1.46287,-132.70081l37.46692,-4.88145l29.97394,129.26644z" fill="#ffe900" stroke="#000000" stroke-width="2" stroke-linecap="butt"/><path d="M203.13589,211.34476l-0.19536,-26.51132l35.53173,-4.62155l6.01017,25.55493c0,0 -6.93172,5.1029 -20.82588,7.1702c-12.35172,1.8378 -20.52067,-1.59225 -20.52067,-1.59225z" fill="#e6d200" stroke="#000000" stroke-width="0" stroke-linecap="butt"/><path d="M152.51845,144.68615c-1.45473,-33.27006 26.09842,-61.4971 61.54167,-63.04686c35.44325,-1.54976 65.355,24.16463 66.80973,57.43468c1.45473,33.27006 -26.09842,61.4971 -61.54167,63.04686c-35.44325,1.54976 -65.355,-24.16463 -66.80973,-57.43468z" fill="#ffe900" stroke="#000000" stroke-width="2" stroke-linecap="butt"/><path d="M153.24317,144.70835c-0.0318,-0.72729 7.64444,55.63857 65.78706,54.11215c55.55284,-1.45842 60.92137,-60.6723 60.96587,-59.65443c1.43302,32.77348 -25.7799,60.58232 -60.78174,62.11277c-35.00185,1.53046 -64.53816,-23.79702 -65.97118,-56.57048z" fill="#e6d200" stroke="#000000" stroke-width="0" stroke-linecap="butt"/><path d="M188.48656,119.5714c12.95562,-0.56649 23.91746,9.4769 24.48395,22.43252c0.56649,12.95562 -9.4769,23.91746 -22.43252,24.48395c-12.95562,0.56649 -23.91746,-9.4769 -24.48395,-22.43252c-0.56649,-12.95562 9.4769,-23.91746 22.43252,-24.48395z" data-paper-data="{&quot;index&quot;:null}" fill="none" stroke="#000000" stroke-width="2" stroke-linecap="butt"/><path d="M227.00879,183.5499c0,0 -3.38448,3.88792 -7.66332,4.07958c-4.61047,0.20651 -8.27105,-3.38284 -8.27105,-3.38284" fill="none" stroke="#000000" stroke-width="2" stroke-linecap="round"/><path d="M267.17713,139.63376c0.56649,12.95562 -9.4769,23.91746 -22.43252,24.48395c-12.95562,0.56649 -23.91746,-9.4769 -24.48395,-22.43252c-0.56649,-12.95562 9.4769,-23.91746 22.43252,-24.48395c12.95562,-0.56649 23.91746,9.4769 24.48395,22.43252z" data-paper-data="{&quot;index&quot;:null}" fill="none" stroke="#000000" stroke-width="2" stroke-linecap="butt"/><path d="M177.44165,115.19027c0,0 6.47674,-5.45736 11.50797,-6.87281c5.03124,-1.41546 12.35291,0.1599 12.35291,0.1599c0,0 -8.03309,0.29091 -11.91854,1.38403c-4.06046,1.14235 -11.94234,5.32888 -11.94234,5.32888z" fill="#000000" stroke="none" stroke-width="0" stroke-linecap="butt"/><path d="M241.10535,107.59988c-3.96604,-0.74981 -11.99385,-0.33846 -11.99385,-0.33846c0,0 7.15622,-2.20842 12.29181,-1.2375c5.13558,0.97092 12.06393,5.84214 12.06393,5.84214c0,0 -8.21722,-3.48259 -12.36188,-4.26618z" data-paper-data="{&quot;index&quot;:null}" fill="#000000" stroke="none" stroke-width="0" stroke-linecap="butt"/><path d="M165.95581,143.7169c-0.02694,-0.61602 5.31856,18.64025 24.33145,17.8556c16.8408,-1.01672 21.51219,-14.56772 22.53347,-18.60257c0.17983,-0.71046 0.25465,-0.93911 0.25465,-0.93911c1.50845,13.10156 -9.65549,24.11239 -22.61111,24.67888c-12.95563,0.56649 -23.94197,-10.03718 -24.50846,-22.99281z" data-paper-data="{&quot;index&quot;:null}" fill="#ffe900" stroke="#000000" stroke-width="2" stroke-linecap="butt"/><path d="M220.1163,141.34873c-0.02694,-0.61602 5.31856,18.64025 24.33145,17.8556c16.8408,-1.01672 21.51219,-14.56772 22.53347,-18.60257c0.17983,-0.71046 0.25465,-0.93911 0.25465,-0.93911c1.50845,13.10156 -9.65549,24.11239 -22.61111,24.67888c-12.95563,0.56649 -23.94197,-10.03718 -24.50846,-22.99281z" data-paper-data="{&quot;index&quot;:null}" fill="#ffe900" stroke="#000000" stroke-width="2" stroke-linecap="butt"/><path d="M192.63533,93.06345l32.36643,-20.93386l-2.64625,13.87885l22.21642,-6.97715l-13.80907,16.11861" fill="#ffea00" stroke="#000000" stroke-width="2" stroke-linecap="round"/></g></g></svg>