<svg version="1.1" xmlns="http://www.w3.org/2000/svg" xmlns:xlink="http://www.w3.org/1999/xlink" width="195.11646" height="267.22501" viewBox="0,0,195.11646,267.22501"><g transform="translate(-160.41706,-46.38752)"><g data-paper-data="{&quot;isPaintingLayer&quot;:true}" fill-rule="nonzero" stroke-linejoin="miter" stroke-miterlimit="10" stroke-dasharray="" stroke-dashoffset="0" style="mix-blend-mode: normal"><path d="M179.28373,313.61253v-267.22501h123.18203v267.22501z" fill-opacity="0.01" fill="#000000" stroke="none" stroke-width="0" stroke-linecap="butt"/><path d="M161.42841,133.58977c0,0 45.05765,-23.11941 62.8238,-37.58238c16.17144,-13.16474 39.43954,-45.66755 39.43954,-45.66755c0,0 16.38972,40.62435 31.0698,56.49342c15.15345,16.38079 58.47587,40.3049 58.47587,40.3049c0,0 -40.49625,16.89481 -57.16919,30.46784c-17.38504,14.15271 -45.09415,52.78209 -45.09415,52.78209c0,0 -17.42875,-41.21023 -32.15881,-57.13333c-15.10889,-16.33261 -57.38686,-39.66498 -57.38686,-39.66498z" fill="#ff6f00" stroke="#000000" stroke-width="2" stroke-linecap="butt"/><path d="M184.72812,203.38862c0,0 15.51268,-48.20847 17.84838,-70.99789c2.12605,-20.74381 -4.40387,-60.1798 -4.40387,-60.1798c0,0 40.31504,17.13647 61.91656,17.97722c22.29808,0.86786 69.84854,-12.84882 69.84854,-12.84882c0,0 -16.68872,40.5816 -18.8807,61.96874c-2.2856,22.30055 5.4362,69.20896 5.4362,69.20896c0,0 -41.46403,-16.81604 -63.13908,-17.65965c-22.2325,-0.8653 -68.62603,12.53126 -68.62603,12.53126z" fill="#ff6f00" stroke="#000000" stroke-width="2" stroke-linecap="butt"/><path d="M192.7568,135.80265c2.34642,-33.21909 32.93699,-58.12207 68.32594,-55.62238c35.38895,2.49969 62.17522,31.45549 59.82879,64.67455c-2.34642,33.21909 -32.93699,58.12207 -68.32594,55.62238c-35.38895,-2.49969 -62.17522,-31.45549 -59.82879,-64.67455z" fill="#ffe900" stroke="#000000" stroke-width="2" stroke-linecap="butt"/><path d="M235.11505,128.97773c0.46207,-6.183 6.1397,-10.84125 12.68137,-10.40452c3.03777,0.20281 13.72082,0.64504 21.65193,3.08849c9.14809,2.81838 15.43547,7.8647 15.18797,11.17648c-0.23642,3.16354 -7.42138,6.25856 -16.41054,7.56288c-8.57974,1.24492 -18.90804,0.77602 -22.10265,0.56274c-6.54167,-0.43674 -11.47012,-5.80308 -11.00806,-11.98607z" fill="#000000" stroke="none" stroke-width="0" stroke-linecap="butt"/><path d="M300.23462,144.44022c-6.47109,-0.42383 -11.3464,-5.63166 -10.88932,-11.632c0.45708,-6.00035 6.07348,-10.52099 12.54457,-10.09716c3.19624,0.20934 15.13601,1.05747 23.6052,3.6828c8.67745,2.68989 13.84641,7.19148 13.6151,10.2281c-0.2393,3.14145 -6.44773,6.43227 -15.77505,7.67012c-8.48843,1.12652 -20.01732,0.3501 -23.1005,0.14816z" data-paper-data="{&quot;index&quot;:null}" fill="#000000" stroke="none" stroke-width="0" stroke-linecap="butt"/><path d="M270.41865,173.55781c2.78777,-10.39938 14.40918,-22.65709 26.10679,-16.38967c4.75657,2.54851 3.90634,6.20271 3.55541,8.61372c-0.29508,2.02737 -2.01778,5.93736 -4.00863,8.18485c-2.08451,2.35323 -4.45356,3.07108 -5.3555,6.43563c-1.4857,5.5422 -4.65239,8.38678 -7.12994,9.98023c-3.99068,2.56664 -11.24922,0.5606 -12.60767,-2.26125c-1.75726,-3.65027 -2.13275,-8.69827 -0.56045,-14.5635z" fill="#000000" stroke="none" stroke-width="0" stroke-linecap="butt"/><path d="M252.35236,104.18488c7.39905,-47.04221 12.5381,-4.28959 12.5381,-4.28959" fill="none" stroke="#000000" stroke-width="2" stroke-linecap="round"/><path d="M293.18058,100.88947c7.39905,-47.04221 12.5381,-4.28959 12.5381,-4.28959" fill="none" stroke="#000000" stroke-width="2" stroke-linecap="round"/></g></g></svg>