<svg version="1.1" xmlns="http://www.w3.org/2000/svg" xmlns:xlink="http://www.w3.org/1999/xlink" width="196.71097" height="267.22501" viewBox="0,0,196.71097,267.22501"><g transform="translate(-145.93159,-46.38752)"><g data-paper-data="{&quot;isPaintingLayer&quot;:true}" fill-rule="nonzero" stroke-linejoin="miter" stroke-miterlimit="10" stroke-dasharray="" stroke-dashoffset="0" style="mix-blend-mode: normal"><path d="M179.28373,313.61253v-267.22501h123.18203v267.22501z" fill-opacity="0.01" fill="#000000" stroke="none" stroke-width="0" stroke-linecap="butt"/><path d="M148.05642,141.49613c0,0 43.3167,-26.23668 60.01964,-41.91549c15.20367,-14.27145 36.12382,-48.33293 36.12382,-48.33293c0,0 19.21135,39.36857 34.97307,54.16386c16.26997,15.27238 61.17039,36.08456 61.17039,36.08456c0,0 -39.2052,19.70616 -54.88037,34.42021c-16.34464,15.34247 -41.26309,55.82821 -41.26309,55.82821c0,0 -20.28908,-39.87979 -36.10446,-54.72545c-16.22212,-15.22746 -60.039,-35.52297 -60.039,-35.52297z" fill="#ff6f00" stroke="#000000" stroke-width="2" stroke-linecap="butt"/><path d="M176.21619,209.47982c0,0 12.07739,-49.18167 12.80157,-72.07902c0.65917,-20.84205 -8.63315,-59.71994 -8.63315,-59.71994c0,0 41.42226,14.25331 63.02933,13.56994c22.30381,-0.7054 68.76963,-17.73836 68.76963,-17.73836c0,0 -13.7879,41.65662 -14.46751,63.14504c-0.70864,22.40617 10.2991,68.65392 10.2991,68.65392c0,0 -42.54582,-13.85272 -64.22644,-13.16703c-22.23821,0.70333 -67.57252,17.33545 -67.57252,17.33545z" fill="#ff6f00" stroke="#000000" stroke-width="2" stroke-linecap="butt"/><path d="M179.46286,141.49613c0,-33.30185 28.7599,-60.29833 64.23702,-60.29833c35.47712,0 64.23702,26.99649 64.23702,60.29833c0,33.30185 -28.7599,60.29833 -64.23702,60.29833c-35.47712,0 -64.23702,-26.99649 -64.23702,-60.29833z" fill="#ffe900" stroke="#000000" stroke-width="2" stroke-linecap="butt"/><path d="M221.23332,137.13812c0,-1.69642 5.02479,-3.07165 11.22319,-3.07165c6.19841,0 11.2232,1.37522 11.2232,3.07165c0,1.69642 -5.0248,3.07165 -11.2232,3.07165c-6.19841,0 -11.22318,-1.37522 -11.22318,-3.07165z" fill="#000000" stroke="none" stroke-width="0" stroke-linecap="butt"/><path d="M286.48982,140.11902c-6.01529,0 -10.89165,-1.3346 -10.89165,-2.98091c0,-1.64631 4.87636,-2.98091 10.89165,-2.98091c6.01529,0 10.89164,1.3346 10.89164,2.98091c0,1.64631 -4.87636,2.98091 -10.89164,2.98091z" data-paper-data="{&quot;index&quot;:null}" fill="#000000" stroke="none" stroke-width="0" stroke-linecap="butt"/><path d="M221.54581,162.88568h55.24935" fill="none" stroke="#000000" stroke-width="2" stroke-linecap="round"/></g></g></svg>