<svg version="1.1" xmlns="http://www.w3.org/2000/svg" xmlns:xlink="http://www.w3.org/1999/xlink" width="144" height="321.11249" viewBox="0,0,144,321.11249"><g transform="translate(-168,-46.38752)"><g data-paper-data="{&quot;isPaintingLayer&quot;:true}" stroke-miterlimit="10" stroke-dasharray="" stroke-dashoffset="0" style="mix-blend-mode: normal"><path d="M168,367.50001v-316h144v316z" data-paper-data="{&quot;index&quot;:null}" fill="none" fill-rule="nonzero" stroke="none" stroke-width="0" stroke-linecap="butt" stroke-linejoin="miter"/><path d="M178.40908,313.61253v-267.22501h123.18203v267.22501z" data-paper-data="{&quot;index&quot;:null}" fill-opacity="0.01" fill="#000000" fill-rule="nonzero" stroke="none" stroke-width="0" stroke-linecap="butt" stroke-linejoin="miter"/><path d="M232.04357,360.79702c0,0 -4.67938,-21.11975 1.4357,-46.3743c3.6733,-15.17028 18.69854,-35.02836 20.03884,-43.72523c2.35721,-15.29534 -2.13056,-43.75197 -2.13056,-43.75197l5.92999,0.91389c0,0 4.6573,30.36412 2.66854,43.26865c-1.51969,9.86086 -16.48135,27.03455 -20.87867,44.52962c-5.81091,23.11915 -1.13385,46.05324 -1.13385,46.05324z" data-paper-data="{&quot;index&quot;:null}" fill="#000000" fill-rule="nonzero" stroke="#000000" stroke-width="2" stroke-linecap="butt" stroke-linejoin="miter"/><path d="M294.00005,355.5001h-11.66667v-130.33333h11.66667z" data-paper-data="{&quot;index&quot;:null}" fill="#653600" fill-rule="nonzero" stroke="#000000" stroke-width="2" stroke-linecap="butt" stroke-linejoin="miter"/><path d="M199.00005,354.83348h-11.66666v-130.33333h11.66666z" data-paper-data="{&quot;index&quot;:null}" fill="#653600" fill-rule="nonzero" stroke="#000000" stroke-width="2" stroke-linecap="butt" stroke-linejoin="miter"/><path d="M174.83341,235.66682v-19.33333h130.33333v19.33333z" data-paper-data="{&quot;index&quot;:null}" fill="#804400" fill-rule="nonzero" stroke="#000000" stroke-width="2" stroke-linecap="butt" stroke-linejoin="miter"/><path d="M233.40394,210.65014l1.93015,-32.75h14.2l-1.93015,32.75z" data-paper-data="{&quot;index&quot;:null}" fill="#a1a5a6" fill-rule="nonzero" stroke="#000000" stroke-width="2" stroke-linecap="butt" stroke-linejoin="miter"/><path d="M204.50005,219.20015l6.40951,-11.4h61.26981l5.27068,11.4z" data-paper-data="{&quot;index&quot;:null}" fill="#babebf" fill-rule="nonzero" stroke="#000000" stroke-width="2" stroke-linecap="butt" stroke-linejoin="miter"/><path d="M219.19975,119.06245h53.404c8.92534,0 15.68722,7.18538 15.1612,16.1107l-2.69066,45.654c-0.52602,8.92532 -8.13485,16.1107 -17.0602,16.1107h-53.404c-8.92532,0 -15.68722,-7.18538 -15.1612,-16.1107l2.69066,-45.654c0.52602,-8.92532 8.13488,-16.1107 17.0602,-16.1107z" data-paper-data="{&quot;index&quot;:null}" fill="#babebf" fill-rule="evenodd" stroke="#000000" stroke-width="2" stroke-linecap="round" stroke-linejoin="round"/><path d="M223.76053,126.33837h43.4249c7.25755,0 12.75591,5.84271 12.32818,13.10025l-2.18788,37.12307c-0.42773,7.25753 -6.61477,13.10025 -13.87232,13.10025h-43.4249c-7.25753,0 -12.75591,-5.84271 -12.32818,-13.10025l2.18788,-37.12307c0.42773,-7.25753 6.61478,-13.10025 13.87232,-13.10025z" data-paper-data="{&quot;index&quot;:null}" fill="#000000" fill-rule="evenodd" stroke="#000000" stroke-width="2" stroke-linecap="round" stroke-linejoin="round"/><path d="M267.71966,148.83442c0.12049,-2.04446 1.87553,-3.70182 3.91999,-3.70182c2.04446,0 3.60413,1.65736 3.48364,3.70182c-0.12049,2.04446 -1.87553,3.70182 -3.91998,3.70182c-2.04446,0 -3.60414,-1.65736 -3.48365,-3.70182z" data-paper-data="{&quot;index&quot;:null}" fill="#ffffff" fill-rule="nonzero" stroke="none" stroke-width="0" stroke-linecap="butt" stroke-linejoin="miter"/><path d="M237.21966,148.83442c0.12049,-2.04446 1.87553,-3.70182 3.91999,-3.70182c2.04446,0 3.60413,1.65736 3.48364,3.70182c-0.12049,2.04446 -1.87553,3.70182 -3.91998,3.70182c-2.04446,0 -3.60414,-1.65736 -3.48365,-3.70182z" data-paper-data="{&quot;index&quot;:null}" fill="#ffffff" fill-rule="nonzero" stroke="none" stroke-width="0" stroke-linecap="butt" stroke-linejoin="miter"/><path d="M223.37325,158.57155l2.38884,3.71429l0.53861,-4.71429l2.48555,4.28571l0.40823,-4.71429l2.56542,5.14286" data-paper-data="{&quot;index&quot;:null}" fill="none" fill-rule="nonzero" stroke="#ffffff" stroke-width="0.5" stroke-linecap="round" stroke-linejoin="miter"/><path d="M269.1391,158.57155l2.38884,3.71429l0.53861,-4.71429l2.48555,4.28571l0.40823,-4.71429l2.56542,5.14286" data-paper-data="{&quot;index&quot;:null}" fill="none" fill-rule="nonzero" stroke="#ffffff" stroke-width="0.5" stroke-linecap="round" stroke-linejoin="miter"/><path d="M267.82525,129.0014c7.35651,-2.22507 10.03787,6.27774 10.03787,6.27774" fill="none" fill-rule="nonzero" stroke="#ffffff" stroke-width="1" stroke-linecap="round" stroke-linejoin="miter"/><path d="M230.25526,135.27916c0,0 3.6836,-8.50281 10.77783,-6.27774" data-paper-data="{&quot;index&quot;:null}" fill="none" fill-rule="nonzero" stroke="#ffffff" stroke-width="1" stroke-linecap="round" stroke-linejoin="miter"/><g data-paper-data="{&quot;index&quot;:null}" fill-rule="nonzero" stroke="#000000" stroke-width="2" stroke-linecap="butt" stroke-linejoin="miter"><path d="M238.2556,87.77627l0.05587,-17.38969l5.25908,-0.29209l-0.05587,17.38969z" fill="#fc0000"/><path d="M206.34987,120.92925c0.04739,-14.75074 5.28838,-34.42685 34.04187,-35.58242c32.51319,-1.30667 33.87274,17.06229 33.82534,31.81303c-0.00384,1.19623 -16.72927,6.17009 -33.95045,7.12657c-17.16306,0.95325 -33.92076,-2.1152 -33.91676,-3.35717z" fill="#fce600"/><path d="M254.73224,103.01839c-3.06591,-16.01402 -16.0601,-17.60245 -14.34053,-17.67157c32.51319,-1.30667 33.87274,17.06229 33.82534,31.81303c-0.00254,0.78826 -7.26588,3.21683 -17.14735,5.05534c0,0 -1.02483,-12.34054 -2.33747,-19.1968z" fill="#0b00ff"/><path d="M206.34987,120.92925c0.04739,-14.75074 5.28838,-34.42685 34.04187,-35.58242c2.08301,-0.08372 -11.9745,6.22036 -13.4639,21.21239c-0.86715,8.72858 0.06988,17.21633 0.06988,17.21633c0,0 -20.65184,-1.60432 -20.64785,-2.8463z" fill="#fc0000"/><path d="M181.26251,136.04886c0,0 10.88083,-8.71949 15.83692,-11.71332c3.23014,-1.95124 11.00667,-4.50212 11.00667,-4.50212c0,0 16.70462,-5.17045 24.80645,-5.62043c9.96019,-0.5532 29.27655,5.86101 29.27655,5.86101c0,0 -7.81707,2.52906 -11.40731,4.40207c-5.12906,2.67579 -16.4324,10.12172 -16.4324,10.12172c0,0 -14.88553,-3.91504 -23.77585,-3.42127c-9.51568,0.52851 -29.31103,4.87234 -29.31103,4.87234z" fill="#00ff15"/><path d="M219.71605,80.84289c0,0 -0.75355,-1.94242 -0.75031,-2.95315c0.00272,-0.84564 0.76849,-2.70474 0.76849,-2.70474l21.14079,2.15341l21.54213,-4.52405c0,0 0.62712,1.88014 0.62419,2.79378c-0.00311,0.96906 -0.64236,2.86411 -0.64236,2.86411l-21.52448,-0.96743z" fill="#0b00ff"/></g><path d="M259.96848,177.01319c-1.23812,3.87395 -4.1075,6.52051 -6.40895,5.91124c-2.30146,-0.60926 -3.16345,-4.24364 -1.92534,-8.11759c1.23812,-3.87395 4.1075,-6.52051 6.40895,-5.91124c2.30146,0.60926 3.16345,4.24364 1.92534,8.11759z" fill="#ffffff" fill-rule="nonzero" stroke="none" stroke-width="0" stroke-linecap="butt" stroke-linejoin="miter"/></g></g></svg>