<svg version="1.1" xmlns="http://www.w3.org/2000/svg" xmlns:xlink="http://www.w3.org/1999/xlink" width="189.33625" height="275.19016" viewBox="0,0,189.33625,275.19016"><g transform="translate(-135.16259,-38.12145)"><g data-paper-data="{&quot;isPaintingLayer&quot;:true}" fill-rule="nonzero" stroke-linejoin="miter" stroke-miterlimit="10" stroke-dasharray="" stroke-dashoffset="0" style="mix-blend-mode: normal"><path d="M245.89369,142.21226c-0.60419,-11.99699 8.63147,-22.21227 20.62847,-22.81647c11.99698,-0.60419 55.7747,18.96862 55.7747,18.96862c0,0 -41.58972,23.87213 -53.5867,24.47632c-11.99699,0.60419 -22.21227,-8.63148 -22.81647,-20.62847z" data-paper-data="{&quot;index&quot;:null}" fill="#fce600" stroke="#000000" stroke-width="2" stroke-linecap="butt"/><g stroke="#000000" stroke-width="2" stroke-linecap="butt"><path d="M168.0061,132.67686l2.81438,-69.96794l7.35152,-0.36898l-2.81438,69.96794z" fill="#fff480"/><path d="M156.78574,63.41335c0.39229,-9.75255 8.63957,-18.05657 18.42081,-18.54751c9.78124,-0.49095 17.39251,7.01709 17.00022,16.76965c-0.39229,9.75255 -8.63957,18.05657 -18.42082,18.54751c-9.78124,0.49095 -17.3925,-7.01709 -17.00021,-16.76965z" fill="#ffe900"/></g><g stroke="#000000" stroke-width="2" stroke-linecap="butt"><path d="M281.71312,126.96796l3.8359,-69.99625l7.35394,-0.36905l-3.8359,69.99625z" fill="#fff480"/><path d="M271.50966,57.67627c0.53467,-9.75649 8.89999,-18.06378 18.68444,-18.55482c9.78446,-0.49104 17.28291,7.02013 16.74823,16.77663c-0.53467,9.75649 -8.9,18.06378 -18.68445,18.55482c-9.78446,0.49104 -17.2829,-7.02013 -16.74822,-16.77663z" fill="#ffe900"/></g><path d="M193.13927,166.64667c-11.99698,0.60419 -55.7747,-18.96862 -55.7747,-18.96862c0,0 41.58972,-23.87213 53.5867,-24.47632c11.99699,-0.60419 22.21227,8.63148 22.81647,20.62847c0.60419,11.99699 -8.63147,22.21227 -20.62847,22.81647z" data-paper-data="{&quot;index&quot;:null}" fill="#fce600" stroke="#000000" stroke-width="2" stroke-linecap="butt"/><path d="M204.56111,312.25647l8.4922,-132.43689l37.72748,-2.05814l20.19614,131.15017z" fill="#ffe900" stroke="#000000" stroke-width="2" stroke-linecap="butt"/><path d="M212.2947,208.3486l1.79323,-26.45133l35.77825,-1.94409l4.07694,25.93366c0,0 -7.29487,4.56874 -21.30492,5.58833c-12.45476,0.90639 -20.3435,-3.12656 -20.3435,-3.12656z" fill="#e6d200" stroke="#000000" stroke-width="0" stroke-linecap="butt"/><path d="M165.10647,143.37339c-1.67504,-33.2597 25.69057,-61.66859 61.12279,-63.45305c35.43221,-1.78445 65.5136,23.73128 67.18864,56.99097c1.67504,33.2597 -25.69057,61.66859 -61.12279,63.45305c-35.43221,1.78445 -65.5136,-23.73128 -67.18864,-56.99097z" fill="#ffe900" stroke="#000000" stroke-width="2" stroke-linecap="butt"/><path d="M165.83132,143.3908c-0.03662,-0.72706 8.01274,55.58672 66.14398,53.67528c55.54196,-1.8263 60.51822,-61.07444 60.56946,-60.05688c1.65004,32.76326 -25.37811,60.75172 -60.36906,62.51394c-34.99095,1.76223 -64.69434,-23.36908 -66.34438,-56.13234z" fill="#e6d200" stroke="#000000" stroke-width="0" stroke-linecap="butt"/><path d="M178.64857,142.87107c-0.65227,-12.95159 9.3183,-23.9797 22.26988,-24.63197c12.95159,-0.65227 23.9797,9.3183 24.63197,22.26988c0.65227,12.95159 -9.3183,23.9797 -22.26988,24.63197c-12.95159,0.65227 -23.9797,-9.3183 -24.63197,-22.26988z" fill="#ffffff" stroke="#000000" stroke-width="2" stroke-linecap="butt"/><path d="M179.42168,144.11669c-0.45913,-9.11652 6.55907,-16.87912 15.67558,-17.33825c9.11652,-0.45913 16.87912,6.55908 17.33825,15.67559c0.45913,9.11652 -6.55908,16.87912 -15.67559,17.33825c-9.11652,0.45913 -16.87911,-6.55908 -17.33824,-15.67559z" fill="#000000" stroke="none" stroke-width="0" stroke-linecap="butt"/><path d="M223.36872,180.11271l15.92941,-0.80225" fill="none" stroke="#000000" stroke-width="2" stroke-linecap="round"/><path d="M257.47028,162.41181c-12.95159,0.65227 -23.9797,-9.3183 -24.63197,-22.26988c-0.65227,-12.95159 9.3183,-23.9797 22.26988,-24.63197c12.95159,-0.65227 23.9797,9.3183 24.63197,22.26988c0.65227,12.95159 -9.3183,23.9797 -22.26988,24.63197z" data-paper-data="{&quot;index&quot;:null}" fill="#ffffff" stroke="#000000" stroke-width="2" stroke-linecap="butt"/><path d="M249.9592,156.7387c-9.11651,0.45913 -16.87911,-6.55908 -17.33824,-15.67559c-0.45913,-9.11652 6.55908,-16.87912 15.67558,-17.33825c9.11651,-0.45913 16.87911,6.55908 17.33824,15.67559c0.45913,9.11652 -6.55908,16.87912 -15.67558,17.33825z" data-paper-data="{&quot;index&quot;:null}" fill="#000000" stroke="none" stroke-width="0" stroke-linecap="butt"/><path d="M189.83379,113.7131c0,0 6.44046,-5.50013 11.4622,-6.94888c5.02176,-1.44875 12.35369,0.07809 12.35369,0.07809c0,0 -8.03097,0.34411 -11.90911,1.46294c-4.0528,1.16922 -11.90678,5.40785 -11.90678,5.40785z" fill="#000000" stroke="none" stroke-width="0" stroke-linecap="butt"/><path d="M253.44582,105.70125c-3.97092,-0.72353 -11.99583,-0.25902 -11.99583,-0.25902c0,0 7.14144,-2.25576 12.28334,-1.31887c5.14189,0.93689 12.10235,5.76211 12.10235,5.76211c0,0 -8.2401,-3.42809 -12.38986,-4.18421z" data-paper-data="{&quot;index&quot;:null}" fill="#000000" stroke="none" stroke-width="0" stroke-linecap="butt"/><path d="M178.58254,143.21727c-0.65227,-12.9516 9.29009,-24.53982 22.24169,-25.19208c12.9516,-0.65227 25.09991,9.26187 24.82809,22.44718c0,0 -0.09596,-0.22062 -0.34169,-0.91106c-1.39555,-3.92116 -7.31846,-16.97378 -24.18033,-16.405c-19.00259,1.00372 -22.51671,20.67679 -22.54773,20.06095z" fill="#ffe900" stroke="#000000" stroke-width="2" stroke-linecap="butt"/><path d="M232.72616,140.49046c-0.65227,-12.9516 9.29009,-24.53982 22.24169,-25.19208c12.9516,-0.65227 25.09991,9.26187 24.82809,22.44718c0,0 -0.09596,-0.22062 -0.34169,-0.91106c-1.39555,-3.92116 -7.31846,-16.97378 -24.18033,-16.405c-19.00259,1.00372 -22.51671,20.67679 -22.54773,20.06095z" fill="#ffe900" stroke="#000000" stroke-width="2" stroke-linecap="butt"/><path d="M204.8806,91.48614l32.22709,-21.14775l-2.55428,13.89607l22.16972,-7.12412l-13.70202,16.20971" fill="#ffea00" stroke="#000000" stroke-width="2" stroke-linecap="round"/></g></g></svg>