<svg version="1.1" xmlns="http://www.w3.org/2000/svg" xmlns:xlink="http://www.w3.org/1999/xlink" width="195.33114" height="267.22501" viewBox="0,0,195.33114,267.22501"><g transform="translate(-156.01418,-46.38751)"><g data-paper-data="{&quot;isPaintingLayer&quot;:true}" fill-rule="nonzero" stroke-linejoin="miter" stroke-miterlimit="10" stroke-dasharray="" stroke-dashoffset="0" style="mix-blend-mode: normal"><path d="M179.28373,313.61253v-267.22501h123.18203v267.22501z" fill-opacity="0.01" fill="#000000" stroke="none" stroke-width="0" stroke-linecap="butt"/><path d="M157.01418,134.06689c0,0 44.60718,-23.97705 62.09343,-38.7772c15.91666,-13.47166 38.55879,-46.4136 38.55879,-46.4136c0,0 17.16379,40.30341 32.14473,55.88878c15.46401,16.08794 59.23613,39.17899 59.23613,39.17899c0,0 -40.16567,17.66634 -56.57594,31.5558c-17.11114,14.48266 -44.07628,53.635 -44.07628,53.635c0,0 -18.21384,-40.86931 -33.24578,-56.50774c-15.41854,-16.04062 -58.13508,-38.56002 -58.13508,-38.56002z" fill="#ff6f00" stroke="#000000" stroke-width="2" stroke-linecap="butt"/><path d="M181.64474,203.40729c0,0 14.5877,-48.49638 16.48706,-71.32631c1.72887,-20.78068 -5.55419,-60.08455 -5.55419,-60.08455c0,0 40.63545,16.36218 62.2491,16.78958c22.3106,0.44118 69.58999,-14.18254 69.58999,-14.18254c0,0 -15.90942,40.8934 -17.6919,62.31855c-1.85861,22.34019 6.75904,69.09231 6.75904,69.09231c0,0 -41.7781,-16.01983 -63.46532,-16.44869c-22.24498,-0.43988 -68.37377,13.84165 -68.37377,13.84165z" fill="#ff6f00" stroke="#000000" stroke-width="2" stroke-linecap="butt"/><path d="M188.37916,135.68011c1.71057,-33.25789 31.8192,-58.74146 67.24949,-56.91915c35.43029,1.82231 62.76553,30.26044 61.05495,63.51831c-1.71057,33.25789 -31.8192,58.74146 -67.24949,56.91915c-35.43029,-1.82231 -62.76553,-30.26044 -61.05495,-63.51831z" fill="#ffe900" stroke="#000000" stroke-width="2" stroke-linecap="butt"/><path d="M230.59747,128.04624c0.31839,-6.19022 5.59464,-10.95027 11.78486,-10.63189c2.87457,0.14785 12.9785,0.39686 20.52013,2.69647c8.69885,2.65247 14.73694,7.5842 14.5664,10.89985c-0.1629,3.16724 -6.89348,6.39159 -15.36328,7.85819c-8.08403,1.39981 -17.85324,1.11772 -20.87622,0.96224c-6.19023,-0.31839 -10.95026,-5.59465 -10.63188,-11.78486z" fill="#000000" stroke="none" stroke-width="0" stroke-linecap="butt"/><path d="M295.20837,142.27544c-6.00735,-0.30898 -10.62679,-5.42938 -10.31781,-11.43673c0.30898,-6.00736 5.42938,-10.62679 11.43673,-10.31781c2.96719,0.15261 14.05258,0.78881 21.95445,3.26345c8.09618,2.53549 12.97435,6.94458 12.81799,9.98474c-0.16176,3.14512 -5.85455,6.54545 -14.47808,7.94851c-7.84794,1.27687 -18.55104,0.70508 -21.41327,0.55786z" data-paper-data="{&quot;index&quot;:null}" fill="#000000" stroke="none" stroke-width="0" stroke-linecap="butt"/><path d="M266.74899,171.94284c2.58834,-10.4508 13.97316,-22.92857 25.78851,-16.88604c4.80445,2.45706 4.02427,6.12685 3.71952,8.54414c-0.25625,2.03264 -1.90384,5.97487 -3.85134,8.26003c-2.03912,2.39267 -4.394,3.15571 -5.23142,6.53689c-1.37942,5.5696 -4.49112,8.47424 -6.93773,10.11479c-3.94085,2.6425 -11.23644,0.77567 -12.64862,-2.01968c-1.82676,-3.61599 -2.29874,-8.65588 -0.83892,-14.55012z" fill="#000000" stroke="none" stroke-width="0" stroke-linecap="butt"/><path d="M259.81278,98.39953c0,0 -5.95588,-42.64649 -12.45375,4.52864" fill="none" stroke="#000000" stroke-width="2" stroke-linecap="round"/><path d="M300.5705,94.32376c0,0 -5.95588,-42.64649 -12.45375,4.52864" fill="none" stroke="#000000" stroke-width="2" stroke-linecap="round"/></g></g></svg>