<svg version="1.1" xmlns="http://www.w3.org/2000/svg" xmlns:xlink="http://www.w3.org/1999/xlink" width="164.96255" height="303.69833" viewBox="0,0,164.96255,303.69833"><g transform="translate(-155.76908,-9.91418)"><g data-paper-data="{&quot;isPaintingLayer&quot;:true}" fill-rule="nonzero" stroke-linejoin="miter" stroke-miterlimit="10" stroke-dasharray="" stroke-dashoffset="0" style="mix-blend-mode: normal"><path d="M179.28376,313.61251v-267.22501h123.18203v267.22501z" fill-opacity="0.01" fill="#000000" stroke="none" stroke-width="0" stroke-linecap="butt"/><path d="M270.24439,224.67057c-12.87508,-1.62328 -5.8369,-122.68329 -5.8369,-122.68329l12.7229,-1.3407c0,0 5.60623,125.59901 -6.88599,124.02399z" data-paper-data="{&quot;index&quot;:null}" fill="#006609" stroke="#000000" stroke-width="2" stroke-linecap="butt"/><path d="M279.93973,213.64532c-12.87508,-1.62328 -5.2475,-109.99089 -5.2475,-109.99089l12.72289,-1.3407c0,0 5.01682,112.90661 -7.4754,111.3316z" data-paper-data="{&quot;index&quot;:null}" fill="#00800b" stroke="#000000" stroke-width="2" stroke-linecap="butt"/><path d="M211.02534,78.8284l12.60946,2.16124c0,0 -1.39355,139.25229 -14.34668,140.03898c-12.56796,0.7633 1.73722,-142.20021 1.73722,-142.20021z" fill="#006609" stroke="#000000" stroke-width="2" stroke-linecap="butt"/><path d="M200.9364,211.52417c-12.80505,-2.10553 -1.10194,-105.79029 -1.10194,-105.79029l12.76426,-0.86207c0,0 0.76196,108.69529 -11.66232,106.65237z" data-paper-data="{&quot;index&quot;:null}" fill="#00800b" stroke="#000000" stroke-width="2" stroke-linecap="butt"/><path d="M206.75007,307.5l15.14285,-131.8421l37.78325,-0.15789l13.57389,132z" fill="#4dff5b" stroke="#000000" stroke-width="2" stroke-linecap="butt"/><path d="M185.60546,200.27167c-11.78557,-2.39946 3.96967,-97.69234 3.96967,-97.69234l12.78775,-0.37811c0,0 -4.41941,100.58238 -16.75743,98.07045z" data-paper-data="{&quot;index&quot;:null}" fill="#006609" stroke="#000000" stroke-width="2" stroke-linecap="butt"/><path d="M294.00853,201.15302c-12.95381,-0.77561 -16.41964,-79.72495 -16.41964,-79.72495l12.60762,-2.17202c0,0 16.38064,82.64952 3.81202,81.89697z" data-paper-data="{&quot;index&quot;:null}" fill="#006609" stroke="#000000" stroke-width="2" stroke-linecap="butt"/><path d="M219.70029,204.11263l3.12142,-26.32765l35.83075,-0.14203l2.76735,26.1059c0,0 -7.51543,4.19603 -21.55904,4.50964c-12.48458,0.27879 -20.16049,-4.14586 -20.16049,-4.14586z" fill="#45e652" stroke="#000000" stroke-width="0" stroke-linecap="butt"/><path d="M298.6765,178.83168c-6.89405,-2.20929 3.35061,-14.49824 -0.0332,-27.05371c-2.90269,-10.77028 3.66548,-15.21176 6.56874,-4.44163c2.71287,10.06392 1.24755,33.98953 -6.53554,31.49534z" data-paper-data="{&quot;index&quot;:null}" fill="#006609" stroke="#000000" stroke-width="2" stroke-linecap="butt"/><path d="M177.42769,134.60658c1.07811,-33.28439 30.69691,-59.33566 66.15544,-58.18713c35.45852,1.14853 63.32937,29.06194 62.25126,62.34632c-1.07811,33.28439 -30.69691,59.33566 -66.15544,58.18713c-35.45852,-1.14853 -63.32937,-29.06194 -62.25126,-62.34632z" fill="#4dff5b" stroke="#000000" stroke-width="2" stroke-linecap="butt"/><path d="M190.95692,135.4745c0.41982,-12.9612 11.2673,-23.12801 24.2285,-22.70818c12.9612,0.41982 23.12801,11.2673 22.70818,24.2285c-0.41982,12.9612 -11.2673,23.12801 -24.2285,22.70818c-12.9612,-0.41982 -23.12801,-11.2673 -22.70818,-24.2285z" fill="#ffffff" stroke="#000000" stroke-width="2" stroke-linecap="butt"/><path d="M198.02751,135.42774c0.29551,-9.1233 7.93095,-16.27962 17.05424,-15.98411c9.1233,0.29551 16.27962,7.93096 15.98411,17.05425c-0.29551,9.1233 -7.93096,16.27962 -17.05425,15.98411c-9.1233,-0.29551 -16.27961,-7.93096 -15.9841,-17.05425z" fill="#000000" stroke="none" stroke-width="0" stroke-linecap="butt"/><path d="M268.14494,161.46763c-12.9612,-0.41982 -23.12801,-11.2673 -22.70818,-24.2285c0.41982,-12.9612 11.2673,-23.12801 24.2285,-22.70818c12.9612,0.41982 23.12801,11.2673 22.70818,24.2285c-0.41982,12.9612 -11.2673,23.12801 -24.2285,22.70818z" data-paper-data="{&quot;index&quot;:null}" fill="#ffffff" stroke="#000000" stroke-width="2" stroke-linecap="butt"/><path d="M268.01659,154.23125c-9.12329,-0.29551 -16.27961,-7.93096 -15.9841,-17.05425c0.29551,-9.1233 7.93096,-16.27962 17.05424,-15.98411c9.12329,0.29551 16.27961,7.93096 15.9841,17.05425c-0.29551,9.1233 -7.93096,16.27962 -17.05424,15.98411z" data-paper-data="{&quot;index&quot;:null}" fill="#000000" stroke="none" stroke-width="0" stroke-linecap="butt"/><path d="M190.87362,135.4718c0.41982,-12.9612 11.2673,-23.12801 24.2285,-22.70818c12.9612,0.41982 23.12801,11.2673 22.70818,24.2285c0,0 -46.97656,-0.28941 -46.93669,-1.52032z" fill="#00cc11" stroke="#000000" stroke-width="2" stroke-linecap="butt"/><path d="M245.18691,137.23105c0.41982,-12.9612 11.2673,-23.12801 24.2285,-22.70818c12.9612,0.41982 23.12801,11.2673 22.70818,24.2285c-0.0393,1.21316 -46.93669,-1.52032 -46.93669,-1.52032z" data-paper-data="{&quot;index&quot;:null}" fill="#00cc11" stroke="#000000" stroke-width="2" stroke-linecap="butt"/><path d="M204.5206,107.09026c0,0 6.87278,-4.94932 11.99704,-5.97829c5.12427,-1.02898 12.30502,1.09831 12.30502,1.09831c0,0 -8.03196,-0.32047 -11.98926,0.47418c-4.13553,0.83044 -12.31281,4.40581 -12.31281,4.40581z" fill="#000000" stroke="none" stroke-width="0" stroke-linecap="butt"/><path d="M178.14863,134.68378c0.02357,-0.72761 3.39361,56.05864 61.48407,58.95567c55.503,2.76799 65.35645,-55.86659 65.32347,-54.84827c-1.06202,32.78759 -30.30979,58.44772 -65.32672,57.3135c-35.01693,-1.13423 -62.54283,-28.6333 -61.48082,-61.42089z" fill="#45e652" stroke="#000000" stroke-width="0" stroke-linecap="butt"/><path d="M268.57704,104.36048c-3.89758,-1.04908 -11.93344,-1.24906 -11.93344,-1.24906c0,0 7.30337,-1.65813 12.35031,-0.2997c5.04693,1.35843 11.58501,6.74213 11.58501,6.74213c0,0 -7.92876,-4.09705 -12.00188,-5.19338z" data-paper-data="{&quot;index&quot;:null}" fill="#000000" stroke="none" stroke-width="0" stroke-linecap="butt"/><path d="M174.06392,134.36301c9.12514,-6.41532 11.32766,1.20155 2.20285,7.61734c-10.63726,7.47921 -10.63414,23.47832 -17.34467,20.76214c-7.57591,-3.06645 6.61502,-22.38483 15.14182,-28.37948z" data-paper-data="{&quot;index&quot;:null}" fill="#006609" stroke="#000000" stroke-width="2" stroke-linecap="butt"/><path d="M190.91539,135.17305l-3.51394,-2.71518" fill="none" stroke="#000000" stroke-width="2" stroke-linecap="round"/><path d="M187.86459,86.15661c17.80399,-16.43277 45.98331,-24.41484 50.89824,-14.97234c3.88435,7.46257 -20.75385,2.27475 -44.50026,26.64831c-20.22217,20.75624 -18.10061,51.84059 -31.00363,48.00402c-12.74212,-3.78873 12.59192,-48.59152 24.60566,-59.67998z" fill="#00cc11" stroke="#000000" stroke-width="2" stroke-linecap="butt"/><path d="M189.23415,94.83391c15.68588,-18.46541 42.69296,-29.79699 48.71381,-21.01822c4.75838,6.93801 -20.32639,4.7681 -40.95068,31.8347c-17.56341,23.04961 -11.69798,53.64919 -24.97029,51.40132c-13.10682,-2.21985 6.62268,-49.75774 17.20716,-62.21779z" fill="#00e613" stroke="#000000" stroke-width="2" stroke-linecap="butt"/><path d="M257.72927,71.83595c-0.27015,2.91262 -7.35694,4.48027 -15.82878,3.50143c-8.47184,-0.97884 -15.12063,-4.13349 -14.85047,-7.04611c0.27015,-2.91262 7.35694,-4.48027 15.82878,-3.50143c8.47184,0.97884 15.12063,4.13349 14.85047,7.04611z" fill="#00ff15" stroke="#000000" stroke-width="2" stroke-linecap="butt"/><path d="M315.66683,155.16439c-13.18156,2.73013 -8.43532,-28.06291 -26.82714,-50.45706c-21.59709,-26.29691 -46.58611,-23.21417 -42.08376,-30.32099c5.69689,-8.99237 33.09905,1.34733 49.44752,19.22876c11.03157,12.06599 32.48059,58.85321 19.4634,61.5493z" data-paper-data="{&quot;index&quot;:null}" fill="#00b30f" stroke="#000000" stroke-width="2" stroke-linecap="butt"/><path d="M291.66902,138.23644l4.30787,-3.26225" fill="none" stroke="#000000" stroke-width="2" stroke-linecap="round"/><path d="M256.69617,174.75413c0,0 -6.86346,1.98001 -16.25733,1.72459c-9.39388,-0.25542 -15.82734,-3.01397 -15.82734,-3.01397" fill="none" stroke="#000000" stroke-width="2" stroke-linecap="round"/><path d="M310.77264,165.05186c-13.42422,0.99881 -4.72731,-28.91945 -20.06181,-53.50827c-18.00695,-28.87407 -43.18474,-29.05582 -37.79933,-35.51923c6.81424,-8.17823 32.6453,5.62551 46.53851,25.47487c9.37482,13.3939 24.57946,62.56629 11.32263,63.55264z" data-paper-data="{&quot;index&quot;:null}" fill="#00e613" stroke="#000000" stroke-width="2" stroke-linecap="butt"/><g stroke="#000000" stroke-width="2" stroke-linecap="butt"><path d="M173.89147,105.51611c0.10017,-3.09263 2.12717,-3.86024 4.59431,-3.78033c2.46716,0.07991 4.44022,0.97709 4.34004,4.06972c-0.10017,3.09263 -2.23564,7.20959 -4.7028,7.12968c-2.46716,-0.07991 -4.33173,-4.32644 -4.23155,-7.41907z" fill="#ff80ee"/><path d="M182.13854,127.02354c-0.10017,3.09263 -2.12716,3.86024 -4.59431,3.78033c-2.46716,-0.07991 -4.44022,-0.97709 -4.34004,-4.06972c0.10017,-3.09263 2.23565,-7.20959 4.7028,-7.12968c2.46716,0.07991 4.33173,4.32644 4.23155,7.41907z" fill="#ff80ee"/><path d="M167.26128,120.39336c-3.09263,-0.10017 -3.86024,-2.12717 -3.78033,-4.59431c0.07991,-2.46716 0.97709,-4.44022 4.06972,-4.34004c3.09263,0.10017 7.20959,2.23565 7.12968,4.7028c-0.07991,2.46716 -4.32644,4.33173 -7.41907,4.23155z" fill="#ff80ee"/><path d="M188.76872,112.14628c3.09263,0.10017 3.86024,2.12717 3.78033,4.59431c-0.07991,2.46716 -0.97709,4.44022 -4.06972,4.34004c-3.09263,-0.10017 -7.20959,-2.23565 -7.12968,-4.7028c0.07991,-2.46716 4.32644,-4.33173 7.41907,-4.23155z" fill="#ff80ee"/><path d="M167.49518,111.58158c-2.11598,-2.25766 -1.22548,-4.23372 0.57557,-5.92176c1.80104,-1.68804 3.83061,-2.4488 5.9466,-0.19116c2.11598,2.25766 3.51711,6.67879 1.71606,8.36683c-1.80104,1.68804 -6.12225,0.00374 -8.23823,-2.25391z" fill="#ff80ee"/><path d="M188.53482,120.95807c2.11598,2.25766 1.22547,4.23372 -0.57558,5.92176c-1.80104,1.68803 -3.83061,2.4488 -5.9466,0.19116c-2.11598,-2.25766 -3.51711,-6.67879 -1.71606,-8.36683c1.80104,-1.68804 6.12225,-0.00374 8.23824,2.25391z" fill="#ff80ee"/><path d="M173.32676,126.78964c-2.25765,2.11598 -4.23373,1.22547 -5.92176,-0.57558c-1.68803,-1.80105 -2.44879,-3.8306 -0.19115,-5.9466c2.25765,-2.11599 6.67879,-3.51712 8.36682,-1.71606c1.68803,1.80105 0.00373,6.12225 -2.25391,8.23824z" fill="#ff80ee"/><path d="M182.70325,105.75001c2.25765,-2.11599 4.23373,-1.22547 5.92176,0.57558c1.68803,1.80105 2.4488,3.8306 0.19116,5.9466c-2.25765,2.11599 -6.67879,3.51712 -8.36683,1.71606c-1.68803,-1.80105 -0.00373,-6.12225 2.25391,-8.23824z" fill="#ff80ee"/><path d="M172.10479,115.95242c0.1058,-3.26637 2.83948,-5.82852 6.10586,-5.72272c3.26638,0.1058 5.82852,2.83948 5.72272,6.10586c-0.1058,3.26637 -2.83948,5.82852 -6.10586,5.72272c-3.26638,-0.1058 -5.82852,-2.83948 -5.72272,-6.10586z" fill="#ffe900"/></g><path d="M191.94135,123.89147c7.18374,-8.53337 11.2588,-1.73178 4.0755,6.80196c-8.37394,9.94822 -4.2842,25.41578 -11.46593,24.50381c-8.10787,-1.02958 0.67773,-23.33194 7.39043,-31.30576z" data-paper-data="{&quot;index&quot;:null}" fill="#00ff15" stroke="#000000" stroke-width="2" stroke-linecap="butt"/><path d="M182.47695,121.99564c11.18016,-14.09357 21.31225,-25.45228 27.04412,-33.2502c7.18298,-9.77206 14.99378,-24.41906 21.96767,-20.96346c7.28261,3.60858 -1.05641,20.61884 -8.47573,30.71243c-5.70774,7.76507 -22.03494,21.00138 -33.16337,35.03122c-13.94697,17.58323 -6.11442,44.06235 -18.5501,42.84976c-14.03936,-1.36897 -0.00275,-40.28618 11.17742,-54.37975z" fill="#00ff15" stroke="#000000" stroke-width="2" stroke-linecap="butt"/><g stroke="#000000" stroke-width="2" stroke-linecap="butt"><path d="M184.63883,134.04208c0.07032,-2.17104 1.49327,-2.70991 3.22523,-2.65381c1.73196,0.0561 3.11705,0.68592 3.04673,2.85696c-0.07032,2.17104 -1.56943,5.06117 -3.30138,5.00508c-1.73196,-0.0561 -3.0409,-3.03719 -2.97058,-5.20823z" fill="#ff80ee"/><path d="M190.42833,149.14042c-0.07032,2.17104 -1.49327,2.70991 -3.22522,2.65381c-1.73196,-0.0561 -3.11706,-0.68592 -3.04674,-2.85696c0.07032,-2.17104 1.56943,-5.06117 3.30139,-5.00507c1.73196,0.0561 3.04089,3.03719 2.97057,5.20823z" fill="#ff80ee"/><path d="M179.98441,144.486c-2.17104,-0.07032 -2.70991,-1.49327 -2.65381,-3.22523c0.0561,-1.73196 0.68592,-3.11706 2.85696,-3.04674c2.17104,0.07032 5.06117,1.56943 5.00507,3.30139c-0.0561,1.73196 -3.03719,3.0409 -5.20823,2.97058z" fill="#ff80ee"/><path d="M195.08275,138.69649c2.17104,0.07032 2.70991,1.49327 2.65381,3.22523c-0.0561,1.73196 -0.68592,3.11706 -2.85696,3.04674c-2.17104,-0.07032 -5.06117,-1.56943 -5.00507,-3.30139c0.0561,-1.73196 3.03719,-3.0409 5.20823,-2.97058z" fill="#ff80ee"/><path d="M180.14862,138.30007c-1.48544,-1.58489 -0.86029,-2.9721 0.40405,-4.15711c1.26435,-1.18501 2.68911,-1.71907 4.17454,-0.13418c1.48544,1.58489 2.46904,4.68855 1.20468,5.87356c-1.26435,1.18501 -4.29785,0.00262 -5.78329,-1.58226z" fill="#ff80ee"/><path d="M194.91855,144.88242c1.48544,1.58489 0.86029,2.9721 -0.40405,4.15711c-1.26435,1.18501 -2.68911,1.71907 -4.17454,0.13418c-1.48544,-1.58489 -2.46904,-4.68855 -1.20468,-5.87356c1.26435,-1.18501 4.29785,-0.00262 5.78329,1.58226z" fill="#ff80ee"/><path d="M184.2424,148.97621c-1.58489,1.48544 -2.9721,0.86029 -4.15711,-0.40405c-1.18501,-1.26435 -1.71907,-2.68911 -0.13418,-4.17454c1.58489,-1.48544 4.68855,-2.46904 5.87356,-1.20468c1.18501,1.26435 0.00262,4.29785 -1.58226,5.78329z" fill="#ff80ee"/><path d="M190.82475,134.20628c1.58489,-1.48544 2.9721,-0.86029 4.15711,0.40405c1.18501,1.26435 1.71907,2.68911 0.13418,4.17454c-1.58489,1.48544 -4.68855,2.46904 -5.87356,1.20468c-1.18501,-1.26435 -0.00262,-4.29785 1.58226,-5.78329z" fill="#ff80ee"/><path d="M183.38458,141.36843c0.07427,-2.29302 1.99333,-4.09165 4.28634,-4.01738c2.29302,0.07427 4.09165,1.99334 4.01738,4.28634c-0.07427,2.29302 -1.99334,4.09165 -4.28634,4.01738c-2.29302,-0.07427 -4.09165,-1.99333 -4.01738,-4.28634z" fill="#ffe900"/></g><path d="M258.13659,84.27269c0,0 20.99063,-11.94925 21.22248,-22.11139c0.1325,-5.80793 -8.86885,-15.07174 -9.7966,-25.29074c-1.2228,-13.46874 12.15922,-24.20986 12.15922,-24.20986c0,0 -2.971,10.40437 -2.1347,22.91696c0.66646,9.97154 8.64596,13.28171 11.26178,26.27887c2.56182,12.72888 -9.94121,33.6016 -9.94121,33.6016c0,0 -3.85282,4.10159 -14.19542,-1.01168c-9.40531,-4.64989 -8.57555,-10.17376 -8.57555,-10.17376z" fill="#004d05" stroke="#000000" stroke-width="2" stroke-linecap="butt"/><path d="M194.32441,134.01172c7.71904,-16.24934 20.72137,-30.04074 24.54989,-38.92918c4.79776,-11.13868 9.10935,-27.16844 16.68231,-25.37215c7.90821,1.8758 3.61417,20.32708 -1.34145,31.83225c-3.81239,8.85101 -19.54019,21.55994 -27.22317,37.73553c-9.62887,20.27246 -1.7229,44.75014 -15.60495,42.24689c-10.91099,-1.96749 -4.78166,-31.264 2.93738,-47.51334z" fill="#00b30f" stroke="#000000" stroke-width="2" stroke-linecap="butt"/><path d="M246.59028,115.71728c-7.01532,-1.78726 2.46546,-14.67472 -1.67333,-27.00193c-3.55032,-10.57448 2.7365,-15.406 6.28737,-4.83171c3.31804,9.88093 3.30596,33.85137 -4.61403,31.83363z" data-paper-data="{&quot;index&quot;:null}" fill="#00cc11" stroke="#000000" stroke-width="2" stroke-linecap="butt"/><path d="M308.33667,136.59755c-12.68959,6.14882 -9.08185,-13.1979 -21.33894,-24.06073c-9.78004,-8.66757 -26.59738,-12.38611 -31.57979,-17.25377c-6.47651,-6.32733 -15.77349,-19.11708 -8.61521,-22.92904c6.85483,-3.65037 15.78816,7.46936 22.05838,13.59514c5.0035,4.88824 19.42224,10.22021 29.24787,18.92698c9.82562,8.70676 20.20144,26.88861 10.2277,31.72145z" data-paper-data="{&quot;index&quot;:null}" fill="#00ff15" stroke="#000000" stroke-width="2" stroke-linecap="butt"/><path d="M210.05035,118.21396c5.96419,-11.69525 17.43711,-21.92767 20.30815,-28.30631c3.5979,-7.99348 6.19883,-19.37388 13.91353,-18.48105c8.05622,0.93235 5.72711,14.00016 2.01084,22.25664c-2.85895,6.35177 -17.15415,15.95891 -23.09024,27.60103c-7.43955,14.59077 2.98879,31.28092 -11.07016,30.19472c-11.05002,-0.85372 -8.0363,-21.56978 -2.07211,-33.26503z" fill="#00ff15" stroke="#000000" stroke-width="2" stroke-linecap="butt"/><g stroke="#000000" stroke-width="2" stroke-linecap="butt"><path d="M211.532,75.28568c0.12313,-3.80154 2.61476,-4.74511 5.64745,-4.64688c3.03269,0.09823 5.45803,1.20107 5.33489,5.0026c-0.12313,3.80154 -2.74811,8.86222 -5.7808,8.76399c-3.03269,-0.09823 -5.32467,-5.31818 -5.20154,-9.11971z" fill="#ff80ee"/><path d="M221.66953,101.72319c-0.12313,3.80154 -2.61476,4.74511 -5.64745,4.64688c-3.03269,-0.09823 -5.45803,-1.20107 -5.33489,-5.0026c0.12313,-3.80154 2.74811,-8.86222 5.7808,-8.76399c3.03269,0.09823 5.32467,5.31818 5.20154,9.11971z" fill="#ff80ee"/><path d="M203.38201,93.5732c-3.80155,-0.12314 -4.74511,-2.61476 -4.64688,-5.64745c0.09823,-3.03269 1.20106,-5.45803 5.0026,-5.33489c3.80155,0.12314 8.86222,2.74811 8.76399,5.7808c-0.09823,3.03269 -5.31817,5.32467 -9.11971,5.20154z" fill="#ff80ee"/><path d="M229.81952,83.43567c3.80155,0.12314 4.74511,2.61476 4.64688,5.64745c-0.09823,3.03269 -1.20106,5.45803 -5.0026,5.33489c-3.80155,-0.12314 -8.86222,-2.74811 -8.76399,-5.7808c0.09823,-3.03269 5.31817,-5.32467 9.11971,-5.20154z" fill="#ff80ee"/><path d="M203.66954,82.74152c-2.60102,-2.77516 -1.50638,-5.20421 0.70752,-7.27918c2.2139,-2.07498 4.70869,-3.01013 7.30971,-0.23497c2.60102,2.77516 4.32333,8.20975 2.10943,10.28472c-2.2139,2.07498 -7.52562,0.00459 -10.12665,-2.77057z" fill="#ff80ee"/><path d="M229.532,94.26735c2.60102,2.77516 1.50638,5.20421 -0.70752,7.27918c-2.2139,2.07498 -4.70869,3.01013 -7.30971,0.23497c-2.60102,-2.77516 -4.32333,-8.20975 -2.10943,-10.28472c2.2139,-2.07498 7.52563,-0.00459 10.12665,2.77057z" fill="#ff80ee"/><path d="M210.83785,101.43567c-2.77516,2.60102 -5.20422,1.50639 -7.27918,-0.70752c-2.07498,-2.2139 -3.01013,-4.70869 -0.23497,-7.30971c2.77516,-2.60102 8.20975,-4.32333 10.28472,-2.10943c2.07498,2.2139 0.00459,7.52563 -2.77057,10.12665z" fill="#ff80ee"/><path d="M222.36368,75.57321c2.77516,-2.60102 5.20422,-1.50639 7.27918,0.70752c2.07498,2.2139 3.01013,4.70869 0.23497,7.30971c-2.77516,2.60102 -8.20975,4.32333 -10.28472,2.10943c-2.07498,-2.2139 -0.00459,-7.52562 2.77057,-10.12665z" fill="#ff80ee"/><path d="M209.33578,88.11428c0.13005,-4.0151 3.49037,-7.16457 7.50548,-7.03452c4.0151,0.13005 7.16457,3.49037 7.03452,7.50548c-0.13005,4.0151 -3.49037,7.16457 -7.50548,7.03452c-4.0151,-0.13005 -7.16457,-3.49037 -7.03452,-7.50548z" fill="#ffe900"/></g><g stroke="#000000" stroke-width="2" stroke-linecap="butt"><path d="M292.55531,97.18309c0.07032,-2.17104 1.49327,-2.70991 3.22523,-2.65381c1.73196,0.0561 3.11706,0.68592 3.04674,2.85696c-0.07032,2.17104 -1.56943,5.06117 -3.30139,5.00507c-1.73196,-0.0561 -3.0409,-3.03719 -2.97058,-5.20823z" fill="#ff80ee"/><path d="M298.34481,112.28143c-0.07032,2.17104 -1.49327,2.70991 -3.22523,2.65381c-1.73196,-0.0561 -3.11706,-0.68592 -3.04674,-2.85696c0.07032,-2.17104 1.56943,-5.06116 3.30139,-5.00506c1.73196,0.0561 3.0409,3.03719 2.97058,5.20822z" fill="#ff80ee"/><path d="M287.9009,107.62702c-2.17104,-0.07032 -2.70991,-1.49327 -2.65381,-3.22523c0.0561,-1.73196 0.68592,-3.11706 2.85696,-3.04674c2.17104,0.07032 5.06117,1.56943 5.00507,3.30139c-0.0561,1.73196 -3.03719,3.0409 -5.20823,2.97058z" fill="#ff80ee"/><path d="M302.99925,101.83751c2.17104,0.07032 2.70991,1.49327 2.65381,3.22523c-0.0561,1.73196 -0.68592,3.11706 -2.85696,3.04674c-2.17104,-0.07032 -5.06117,-1.56943 -5.00507,-3.30139c0.0561,-1.73196 3.03719,-3.0409 5.20823,-2.97058z" fill="#ff80ee"/><path d="M288.0651,101.44109c-1.48543,-1.58489 -0.86029,-2.9721 0.40405,-4.15711c1.26435,-1.18501 2.68911,-1.71907 4.17454,-0.13419c1.48543,1.58489 2.46904,4.68855 1.20468,5.87356c-1.26435,1.18501 -4.29785,0.00262 -5.78329,-1.58226z" fill="#ff80ee"/><path d="M302.83504,108.02344c1.48543,1.58489 0.86028,2.9721 -0.40406,4.15711c-1.26435,1.18501 -2.68911,1.71907 -4.17454,0.13418c-1.48543,-1.58489 -2.46904,-4.68855 -1.20468,-5.87356c1.26435,-1.18501 4.29786,-0.00262 5.78329,1.58226z" fill="#ff80ee"/><path d="M292.1589,112.11723c-1.58488,1.48544 -2.9721,0.86029 -4.15711,-0.40405c-1.18501,-1.26435 -1.71907,-2.68911 -0.13418,-4.17454c1.58488,-1.48544 4.68855,-2.46903 5.87356,-1.20468c1.18501,1.26435 0.00262,4.29785 -1.58226,5.78329z" fill="#ff80ee"/><path d="M298.74126,97.34729c1.58488,-1.48544 2.9721,-0.86028 4.15711,0.40406c1.18501,1.26435 1.71907,2.6891 0.13419,4.17454c-1.58488,1.48544 -4.68855,2.46903 -5.87356,1.20468c-1.18501,-1.26435 -0.00262,-4.29785 1.58226,-5.78329z" fill="#ff80ee"/><path d="M291.30107,104.50944c0.07427,-2.29301 1.99334,-4.09165 4.28634,-4.01738c2.29302,0.07427 4.09165,1.99334 4.01738,4.28634c-0.07427,2.29301 -1.99334,4.09165 -4.28634,4.01738c-2.29302,-0.07427 -4.09165,-1.99334 -4.01738,-4.28634z" fill="#ffe900"/></g></g></g></svg>