<svg version="1.1" xmlns="http://www.w3.org/2000/svg" xmlns:xlink="http://www.w3.org/1999/xlink" width="196.67149" height="270.99045" viewBox="0,0,196.67149,270.99045"><g transform="translate(-140.06487,-42.62207)"><g data-paper-data="{&quot;isPaintingLayer&quot;:true}" fill-rule="nonzero" stroke-linecap="butt" stroke-linejoin="miter" stroke-miterlimit="10" stroke-dasharray="" stroke-dashoffset="0" style="mix-blend-mode: normal"><path d="M179.28373,313.61253v-267.22501h123.18203v267.22501z" fill-opacity="0.01" fill="#000000" stroke="none" stroke-width="0"/><path d="M142.18704,136.78189c0,0 42.80319,-27.06634 59.20097,-43.06403c14.9259,-14.56171 35.18594,-49.01991 35.18594,-49.01991c0,0 19.96625,38.99114 36.01009,53.48002c16.56118,14.95609 61.85423,34.89937 61.85423,34.89937c0,0 -38.81827,20.45782 -54.20705,35.47113c-16.04602,15.65451 -40.17986,56.61281 -40.17986,56.61281c0,0 -21.05363,-39.4815 -37.15209,-54.01971c-16.51248,-14.9121 -60.71223,-34.35968 -60.71223,-34.35968z" fill="#ff6f00" stroke="#000000" stroke-width="2"/><path d="M171.65134,204.21044c0,0 11.12763,-49.40522 11.41054,-72.31227c0.25751,-20.85088 -9.7821,-59.54253 -9.7821,-59.54253c0,0 41.68917,13.45263 63.27907,12.35311c22.28608,-1.13497 68.41512,-19.05997 68.41512,-19.05997c0,0 -12.98279,41.91452 -13.24829,63.41205c-0.27684,22.41566 11.61986,68.44276 11.61986,68.44276c0,0 -42.80481,-13.03047 -64.46819,-11.92721c-22.22053,1.13164 -67.226,18.63407 -67.226,18.63407z" fill="#ff6f00" stroke="#000000" stroke-width="2"/><path d="M173.58765,136.17682c-0.64159,-33.29567 27.59287,-60.84122 63.0634,-61.52471c35.47054,-0.68349 64.74521,25.7539 65.38679,59.04956c0.64159,33.29567 -27.59287,60.84122 -63.0634,61.52471c-35.47054,0.68349 -64.74521,-25.7539 -65.38679,-59.04956z" fill="#ffe900" stroke="#000000" stroke-width="2"/><path d="M236.44539,149.16839c0.29881,-1.01191 27.09562,0.60522 26.68847,1.98403c-2.84274,9.62678 -11.12166,16.9867 -18.49148,16.43882c-7.36981,-0.54788 -11.03973,-8.79606 -8.19699,-18.42286z" fill="#000000" stroke="#000000" stroke-width="2"/><path d="M215.1617,125.58153c-0.11942,-6.19725 4.80763,-11.31791 11.00488,-11.43733c6.19726,-0.11942 11.31792,4.80763 11.43734,11.00488c0.11942,6.19725 -4.80764,11.31791 -11.00489,11.43733c-6.19726,0.11942 -11.3179,-4.80764 -11.43732,-11.00488z" fill="#000000" stroke="none" stroke-width="0"/><path d="M280.61592,135.21393c-6.01417,0.11589 -10.98358,-4.66562 -11.09946,-10.67979c-0.11589,-6.01418 4.66562,-10.98358 10.67979,-11.09946c6.01417,-0.11589 10.98357,4.66562 11.09945,10.67979c0.11589,6.01418 -4.66562,10.98359 -10.67978,11.09947z" data-paper-data="{&quot;index&quot;:null}" fill="#000000" stroke="none" stroke-width="0"/></g></g></svg>