<svg version="1.1" xmlns="http://www.w3.org/2000/svg" xmlns:xlink="http://www.w3.org/1999/xlink" width="144" height="321.11249" viewBox="0,0,144,321.11249"><g transform="translate(-168,-46.38752)"><g data-paper-data="{&quot;isPaintingLayer&quot;:true}" stroke-miterlimit="10" stroke-dasharray="" stroke-dashoffset="0" style="mix-blend-mode: normal"><path d="M232.90004,210.65013l0.77167,-32.75h14.2l-0.77167,32.75z" data-paper-data="{&quot;index&quot;:null}" fill="#a1a5a6" fill-rule="nonzero" stroke="#000000" stroke-width="2" stroke-linecap="butt" stroke-linejoin="miter"/><path d="M215.45608,119.06244h53.404c8.92534,0 15.94139,7.18538 15.73109,16.1107l-1.07572,45.654c-0.2103,8.92532 -7.56496,16.1107 -16.49031,16.1107h-53.404c-8.92532,0 -15.94139,-7.18538 -15.73109,-16.1107l1.07572,-45.654c0.2103,-8.92532 7.56499,-16.1107 16.49031,-16.1107z" data-paper-data="{&quot;index&quot;:null}" fill="#babebf" fill-rule="evenodd" stroke="#000000" stroke-width="2" stroke-linecap="round" stroke-linejoin="round"/><path d="M220.27423,126.33836h43.4249c7.25755,0 12.96258,5.84271 12.79158,13.10025l-0.87471,37.12307c-0.17101,7.25753 -6.15137,13.10025 -13.40892,13.10025h-43.4249c-7.25753,0 -12.96258,-5.84271 -12.79158,-13.10025l0.87471,-37.12307c0.17101,-7.25753 6.15138,-13.10025 13.40892,-13.10025z" data-paper-data="{&quot;index&quot;:null}" fill="#000000" fill-rule="evenodd" stroke="#000000" stroke-width="2" stroke-linecap="round" stroke-linejoin="round"/><g data-paper-data="{&quot;index&quot;:null}" fill-rule="nonzero" stroke="#000000" stroke-width="2" stroke-linecap="butt" stroke-linejoin="miter"><path d="M243.59505,86.66417l0.41038,-17.41667h5.25l-0.41038,17.41667z" fill="#fc0000"/><path d="M211.10438,118.09936c0.3481,-14.77362 5.97541,-34.19218 34.67023,-33.75c32.44686,0.5 33.42787,18.97638 33.07977,33.75c-0.02823,1.19809 -16.80726,5.25 -33.9987,5.25c-17.13342,0 -33.78061,-4.0061 -33.7513,-5.25z" fill="#fce600"/><path d="M259.71369,102.84936c-2.73053,-16.2123 -15.65515,-18.52644 -13.93909,-18.5c32.44686,0.5 33.42787,18.97638 33.07977,33.75c-0.0186,0.78948 -7.3107,2.81815 -17.20141,4.11006c0,0 -0.77021,-12.41891 -1.93926,-19.36006z" fill="#0b00ff"/><path d="M211.10438,118.09936c0.3481,-14.77362 5.97541,-34.19218 34.67023,-33.75c2.07877,0.03203 -12.06712,5.5649 -13.85803,20.5c-1.04269,8.69544 -0.28145,17.25 -0.28145,17.25c0,0 -20.56006,-2.7561 -20.53075,-4z" fill="#fc0000"/><path d="M185.78041,131.84936c0,0 11.02755,-8.1292 16.03053,-10.85247c3.2607,-1.7749 11.06702,-3.89753 11.06702,-3.89753c0,0 16.7623,-4.25 24.85014,-4.25c9.94299,0 29.07328,7.5 29.07328,7.5c0,0 -7.8463,2.09852 -11.46447,3.77502c-5.16896,2.39505 -16.59184,9.22498 -16.59184,9.22498c0,0 -14.76312,-4.75 -23.63808,-4.75c-9.49924,0 -29.32658,3.25 -29.32658,3.25z" fill="#00ff15"/><path d="M225.24993,78.68731c0,0 -0.71178,-1.98771 -0.68793,-3c0.01996,-0.84695 0.82145,-2.66666 0.82145,-2.66666l21.03641,3.33334l21.57279,-3.33334c0,0 0.58698,1.91828 0.56542,2.83334c-0.02287,0.97056 -0.69894,2.83333 -0.69894,2.83333l-21.4432,-2.16666z" fill="#0b00ff"/></g><g fill="none" fill-rule="nonzero" stroke="#ffffff" stroke-linecap="round" stroke-linejoin="miter"><path d="M215.33884,160.90488l2.76962,3.71429l0.39679,-4.71429l2.89902,4.28571l0.25394,-4.71429l3.02168,5.14286" data-paper-data="{&quot;index&quot;:null}" stroke-width="0.5"/><path d="M265.48167,160.90488l2.76962,3.71429l0.39679,-4.71429l2.89902,4.28571l0.25394,-4.71429l3.02168,5.14286" data-paper-data="{&quot;index&quot;:null}" stroke-width="0.5"/><path d="M239.0742,184.25002l5.25381,-5.5l5.17523,5.5" stroke-width="1"/><g stroke-width="1"><path d="M221.66523,143.51396l46.40921,18"/><path d="M221.24111,161.51396l47.25745,-18" data-paper-data="{&quot;index&quot;:null}"/></g></g><path d="M168,367.50001v-316h144v316z" data-paper-data="{&quot;index&quot;:null}" fill="none" fill-rule="nonzero" stroke="none" stroke-width="0" stroke-linecap="butt" stroke-linejoin="miter"/><path d="M178.40908,313.61253v-267.22501h123.18203v267.22501z" data-paper-data="{&quot;index&quot;:null}" fill-opacity="0.01" fill="#000000" fill-rule="nonzero" stroke="none" stroke-width="0" stroke-linecap="butt" stroke-linejoin="miter"/><path d="M232.04357,360.79702c0,0 -4.67938,-21.11975 1.4357,-46.3743c3.6733,-15.17028 18.69854,-35.02836 20.03884,-43.72523c2.35721,-15.29534 -2.13056,-43.75197 -2.13056,-43.75197l5.92999,0.91389c0,0 4.6573,30.36412 2.66854,43.26865c-1.51969,9.86086 -16.48135,27.03455 -20.87867,44.52962c-5.81091,23.11915 -1.13385,46.05324 -1.13385,46.05324z" data-paper-data="{&quot;index&quot;:null}" fill="#000000" fill-rule="nonzero" stroke="#000000" stroke-width="2" stroke-linecap="butt" stroke-linejoin="miter"/><path d="M294.00005,355.5001h-11.66667v-130.33333h11.66667z" data-paper-data="{&quot;index&quot;:null}" fill="#653600" fill-rule="nonzero" stroke="#000000" stroke-width="2" stroke-linecap="butt" stroke-linejoin="miter"/><path d="M199.00005,354.83347h-11.66666v-130.33333h11.66666z" data-paper-data="{&quot;index&quot;:null}" fill="#653600" fill-rule="nonzero" stroke="#000000" stroke-width="2" stroke-linecap="butt" stroke-linejoin="miter"/><path d="M174.83341,235.66681v-19.33333h130.33333v19.33333z" data-paper-data="{&quot;index&quot;:null}" fill="#804400" fill-rule="nonzero" stroke="#000000" stroke-width="2" stroke-linecap="butt" stroke-linejoin="miter"/><path d="M204.50005,219.20014l5.73764,-11.4h61.26981l5.94255,11.4z" data-paper-data="{&quot;index&quot;:null}" fill="#babebf" fill-rule="nonzero" stroke="#000000" stroke-width="2" stroke-linecap="butt" stroke-linejoin="miter"/></g></g></svg>