<svg version="1.1" xmlns="http://www.w3.org/2000/svg" xmlns:xlink="http://www.w3.org/1999/xlink" width="175.017" height="267.22501" viewBox="0,0,175.017,267.22501"><g transform="translate(-152.7844,-47.58751)"><g data-paper-data="{&quot;isPaintingLayer&quot;:true}" fill-rule="nonzero" stroke-linejoin="miter" stroke-miterlimit="10" stroke-dasharray="" stroke-dashoffset="0" style="mix-blend-mode: normal"><path d="M179.28374,314.81252v-267.22501h123.18203v267.22501z" fill-opacity="0.01" fill="#000000" stroke="none" stroke-width="0" stroke-linecap="butt"/><path d="M278.3318,124.46212c-5.95755,-5.01481 -6.49029,-14.18469 -1.18992,-20.48147c5.30037,-6.29678 48.28681,-35.46917 48.28681,-35.46917c0,0 -21.41226,47.33263 -26.71263,53.62941c-5.30037,6.29679 -14.42672,7.33603 -20.38427,2.32122z" data-paper-data="{&quot;index&quot;:null}" fill="#b30000" stroke="#000000" stroke-width="2" stroke-linecap="butt"/><path d="M181.86973,122.14089c-5.30037,-6.29678 -26.71263,-53.62941 -26.71263,-53.62941c0,0 42.98645,29.17238 48.28682,35.46917c5.30037,6.29679 4.76763,15.46666 -1.18992,20.48147c-5.95755,5.01481 -15.0839,3.97556 -20.38427,-2.32122z" fill="#b30000" stroke="#000000" stroke-width="2" stroke-linecap="butt"/><path d="M206.75005,307.5l15.14285,-131.8421l37.78325,-0.15789l13.57389,132z" fill="#ff0000" stroke="#000000" stroke-width="2" stroke-linecap="butt"/><path d="M219.70028,204.11263l3.12142,-26.32765l35.83075,-0.14203l2.76735,26.1059c0,0 -7.51543,4.19603 -21.55904,4.50964c-12.48458,0.27879 -20.16049,-4.14586 -20.16049,-4.14586z" fill="#e60000" stroke="#000000" stroke-width="0" stroke-linecap="butt"/><path d="M175.83996,136.84616c0,-33.30185 28.7599,-60.29833 64.23702,-60.29833c35.47712,0 64.23702,26.99649 64.23702,60.29833c0,33.30185 -28.7599,60.29833 -64.23702,60.29833c-35.47712,0 -64.23702,-26.99649 -64.23702,-60.29833z" fill="#ff0000" stroke="#000000" stroke-width="2" stroke-linecap="butt"/><path d="M176.56302,136.9c0,-0.72799 5.20666,55.91939 63.36046,56.93429c55.56352,0.9697 63.51358,-57.95314 63.51358,-56.93429c0,32.80479 -28.40173,59.39833 -63.43702,59.39833c-35.03529,0 -63.43702,-26.59354 -63.43702,-59.39833z" fill="#e60000" stroke="#000000" stroke-width="0" stroke-linecap="butt"/><path d="M189.39017,137.27563c0,-12.968 10.51265,-23.48065 23.48065,-23.48065c12.968,0 23.48065,10.51265 23.48065,23.48065c0,12.968 -10.51265,23.48065 -23.48065,23.48065c-12.968,0 -23.48065,-10.51265 -23.48065,-23.48065z" fill="#ffffff" stroke="#000000" stroke-width="2" stroke-linecap="butt"/><path d="M203.28535,137c0,-9.12808 7.39976,-16.52784 16.52783,-16.52784c9.12808,0 16.52784,7.39977 16.52784,16.52784c0,9.12808 -7.39977,16.52784 -16.52784,16.52784c-9.12808,0 -16.52783,-7.39977 -16.52783,-16.52784z" fill="#000000" stroke="none" stroke-width="0" stroke-linecap="butt"/><path d="M230.67631,178.01468h19.67658" fill="none" stroke="#000000" stroke-width="2" stroke-linecap="round"/><path d="M267.12926,160.75627c-12.968,0 -23.48065,-10.51265 -23.48065,-23.48065c0,-12.968 10.51265,-23.48065 23.48065,-23.48065c12.968,0 23.48065,10.51265 23.48065,23.48065c0,12.968 -10.51265,23.48065 -23.48065,23.48065z" data-paper-data="{&quot;index&quot;:null}" fill="#ffffff" stroke="#000000" stroke-width="2" stroke-linecap="butt"/><path d="M273.84648,153.52784c-9.12807,0 -16.52783,-7.39977 -16.52783,-16.52784c0,-9.12808 7.39977,-16.52784 16.52783,-16.52784c9.12807,0 16.52783,7.39977 16.52783,16.52784c0,9.12808 -7.39977,16.52784 -16.52783,16.52784z" data-paper-data="{&quot;index&quot;:null}" fill="#000000" stroke="none" stroke-width="0" stroke-linecap="butt"/><path d="M189.39017,137.27563c0,-12.968 10.51265,-23.48065 23.48065,-23.48065c12.968,0 23.48065,10.51265 23.48065,23.48065c0,0 -6.44581,-6.87726 -22.27164,-7.18056c-16.70276,-0.32011 -24.68967,7.71005 -24.68967,7.18056z" fill="#ff0000" stroke="#000000" stroke-width="2" stroke-linecap="butt"/><path d="M243.7203,137.27563c0,-12.968 10.51265,-23.48065 23.48065,-23.48065c12.968,0 23.48065,10.51265 23.48065,23.48065c0,0 -6.44581,-6.87726 -22.27164,-7.18056c-16.70276,-0.32011 -24.68967,7.71005 -24.68967,7.18056z" fill="#ff0000" stroke="#000000" stroke-width="2" stroke-linecap="butt"/><path d="M197.69308,102.12015c0,0 11.56543,-1.4411 18.56067,-0.06546c6.99525,1.37564 14.61461,6.58948 14.61461,6.58948c0,0 -9.782,-3.93622 -15.18421,-4.99857c-5.64551,-1.1102 -17.99108,-1.52545 -17.99108,-1.52545z" fill="#000000" stroke="none" stroke-width="0" stroke-linecap="butt"/><path d="M264.50484,103.63041c-5.42965,0.98248 -15.31542,4.77365 -15.31542,4.77365c0,0 7.75784,-5.10045 14.78864,-6.37266c7.03078,-1.27221 18.55525,0.33916 18.55525,0.33916c0,0 -12.35427,0.23311 -18.02847,1.25984z" data-paper-data="{&quot;index&quot;:null}" fill="#000000" stroke="none" stroke-width="0" stroke-linecap="butt"/><path d="M230.93889,79.06235c0,-3.51131 9.1,-24.84221 9.1,-24.84221c0,0 9.1,21.33091 9.1,24.84221c0,3.51131 -4.07421,6.35779 -9.1,6.35779c-5.02579,0 -9.1,-2.84648 -9.1,-6.35779z" fill="#b30000" stroke="#000000" stroke-width="2" stroke-linecap="butt"/><path d="M264.96621,85.26157c1.37321,-3.23165 18.0906,-19.30482 18.0906,-19.30482c0,0 0.03308,23.19088 -1.34013,26.42253c-1.37321,3.23165 -6.23614,4.25807 -10.86165,2.29257c-4.62552,-1.9655 -7.26202,-6.17862 -5.88882,-9.41027z" fill="#b30000" stroke="#000000" stroke-width="2" stroke-linecap="butt"/><path d="M211.47116,94.33851c-4.62552,1.9655 -9.48845,0.93908 -10.86166,-2.29257c-1.37321,-3.23165 -1.34013,-26.42253 -1.34013,-26.42253c0,0 16.71739,16.07317 18.0906,19.30482c1.37321,3.23165 -1.2633,7.44477 -5.88881,9.41027z" data-paper-data="{&quot;index&quot;:null}" fill="#b30000" stroke="#000000" stroke-width="2" stroke-linecap="butt"/></g></g></svg>