<svg version="1.1" xmlns="http://www.w3.org/2000/svg" xmlns:xlink="http://www.w3.org/1999/xlink" width="144" height="321.11249" viewBox="0,0,144,321.11249"><g transform="translate(-168,-46.38752)"><g data-paper-data="{&quot;isPaintingLayer&quot;:true}" stroke-miterlimit="10" stroke-dasharray="" stroke-dashoffset="0" style="mix-blend-mode: normal"><path d="M168,367.50001v-316h144v316z" data-paper-data="{&quot;index&quot;:null}" fill="none" fill-rule="nonzero" stroke="none" stroke-width="0" stroke-linecap="butt" stroke-linejoin="miter"/><path d="M178.40908,313.61253v-267.22501h123.18203v267.22501z" data-paper-data="{&quot;index&quot;:null}" fill-opacity="0.01" fill="#000000" fill-rule="nonzero" stroke="none" stroke-width="0" stroke-linecap="butt" stroke-linejoin="miter"/><path d="M232.04357,360.79702c0,0 -4.67938,-21.11975 1.4357,-46.3743c3.6733,-15.17028 18.69854,-35.02836 20.03884,-43.72523c2.35721,-15.29534 -2.13056,-43.75197 -2.13056,-43.75197l5.92999,0.91389c0,0 4.6573,30.36412 2.66854,43.26865c-1.51969,9.86086 -16.48135,27.03455 -20.87867,44.52962c-5.81091,23.11915 -1.13385,46.05324 -1.13385,46.05324z" data-paper-data="{&quot;index&quot;:null}" fill="#000000" fill-rule="nonzero" stroke="#000000" stroke-width="2" stroke-linecap="butt" stroke-linejoin="miter"/><path d="M294.00005,355.5001h-11.66667v-130.33333h11.66667z" data-paper-data="{&quot;index&quot;:null}" fill="#653600" fill-rule="nonzero" stroke="#000000" stroke-width="2" stroke-linecap="butt" stroke-linejoin="miter"/><path d="M199.00005,354.83346h-11.66666v-130.33333h11.66666z" data-paper-data="{&quot;index&quot;:null}" fill="#653600" fill-rule="nonzero" stroke="#000000" stroke-width="2" stroke-linecap="butt" stroke-linejoin="miter"/><path d="M174.83341,235.6668v-19.33333h130.33333v19.33333z" data-paper-data="{&quot;index&quot;:null}" fill="#804400" fill-rule="nonzero" stroke="#000000" stroke-width="2" stroke-linecap="butt" stroke-linejoin="miter"/><path d="M232.90004,210.65012v-32.75h14.2v32.75z" data-paper-data="{&quot;index&quot;:null}" fill="#a1a5a6" fill-rule="nonzero" stroke="#000000" stroke-width="2" stroke-linecap="butt" stroke-linejoin="miter"/><path d="M204.50005,219.20013l5.73764,-11.4h61.26981l5.94255,11.4z" data-paper-data="{&quot;index&quot;:null}" fill="#babebf" fill-rule="nonzero" stroke="#000000" stroke-width="2" stroke-linecap="butt" stroke-linejoin="miter"/><path d="M213.29805,119.06243h53.404c8.92534,0 16.1107,7.18538 16.1107,16.1107v45.654c0,8.92532 -7.18535,16.1107 -16.1107,16.1107h-53.404c-8.92532,0 -16.1107,-7.18538 -16.1107,-16.1107v-45.654c0,-8.92532 7.18538,-16.1107 16.1107,-16.1107z" data-paper-data="{&quot;index&quot;:null}" fill="#babebf" fill-rule="evenodd" stroke="#000000" stroke-width="2" stroke-linecap="round" stroke-linejoin="round"/><path d="M218.28764,126.33835h43.4249c7.25755,0 13.10025,5.84271 13.10025,13.10025v37.12307c0,7.25753 -5.8427,13.10025 -13.10025,13.10025h-43.4249c-7.25753,0 -13.10025,-5.84271 -13.10025,-13.10025v-37.12307c0,-7.25753 5.84271,-13.10025 13.10025,-13.10025z" data-paper-data="{&quot;index&quot;:null}" fill="#000000" fill-rule="evenodd" stroke="#000000" stroke-width="2" stroke-linecap="round" stroke-linejoin="round"/><path d="M263.5726,148.83441c0,-2.04446 1.65736,-3.70182 3.70182,-3.70182c2.04446,0 3.70181,1.65736 3.70181,3.70182c0,2.04446 -1.65736,3.70182 -3.70181,3.70182c-2.04446,0 -3.70182,-1.65736 -3.70182,-3.70182z" data-paper-data="{&quot;index&quot;:null}" fill="#ffffff" fill-rule="nonzero" stroke="none" stroke-width="0" stroke-linecap="butt" stroke-linejoin="miter"/><path d="M233.0726,148.83441c0,-2.04446 1.65736,-3.70182 3.70182,-3.70182c2.04446,0 3.70181,1.65736 3.70181,3.70182c0,2.04446 -1.65736,3.70182 -3.70181,3.70182c-2.04446,0 -3.70182,-1.65736 -3.70182,-3.70182z" data-paper-data="{&quot;index&quot;:null}" fill="#ffffff" fill-rule="nonzero" stroke="none" stroke-width="0" stroke-linecap="butt" stroke-linejoin="miter"/><path d="M219.80005,158.57154l2.60774,3.71429l0.26077,-4.71429l2.73813,4.28571l0.13039,-4.71429l2.86852,5.14286" data-paper-data="{&quot;index&quot;:null}" fill="none" fill-rule="nonzero" stroke="#ffffff" stroke-width="0.5" stroke-linecap="round" stroke-linejoin="miter"/><path d="M265.5659,158.57154l2.60774,3.71429l0.26077,-4.71429l2.73813,4.28571l0.13039,-4.71429l2.86852,5.14286" data-paper-data="{&quot;index&quot;:null}" fill="none" fill-rule="nonzero" stroke="#ffffff" stroke-width="0.5" stroke-linecap="round" stroke-linejoin="miter"/><path d="M262.50931,129.00139c7.22537,-2.22507 10.40785,6.27774 10.40785,6.27774" fill="none" fill-rule="nonzero" stroke="#ffffff" stroke-width="1" stroke-linecap="round" stroke-linejoin="miter"/><path d="M225.30931,135.27914c0,0 3.18248,-8.50281 10.40785,-6.27774" data-paper-data="{&quot;index&quot;:null}" fill="none" fill-rule="nonzero" stroke="#ffffff" stroke-width="1" stroke-linecap="round" stroke-linejoin="miter"/><g data-paper-data="{&quot;index&quot;:null}" fill-rule="nonzero" stroke="#000000" stroke-width="2" stroke-linecap="butt" stroke-linejoin="miter"><path d="M230.51003,87.77626l-0.96901,-17.38969l5.24187,-0.29209l0.96901,17.38969z" fill="#fc0000"/><path d="M200.55819,120.92923c-0.82196,-14.75074 3.25941,-34.42685 31.94479,-35.58242c32.43618,-1.30667 34.87832,17.06229 35.70027,31.81303c0.06666,1.19623 -16.36563,6.17009 -33.53044,7.12657c-17.10688,0.95325 -34.04542,-2.1152 -34.11462,-3.35717z" fill="#fce600"/><path d="M247.88497,103.01837c-4.00971,-16.01402 -17.09751,-17.60245 -15.38202,-17.67157c32.43618,-1.30667 34.87832,17.06229 35.70027,31.81303c0.04392,0.78826 -7.07629,3.21683 -16.84941,5.05534c0,0 -1.75213,-12.34054 -3.46885,-19.1968z" fill="#0b00ff"/><path d="M200.55819,120.92923c-0.82196,-14.75074 3.25941,-34.42685 31.94479,-35.58242c2.07808,-0.08372 -11.6079,6.22036 -12.21373,21.21239c-0.35272,8.72858 1.08454,17.21633 1.08454,17.21633c0,0 -20.74639,-1.60432 -20.8156,-2.8463z" fill="#fc0000"/><path d="M176.36192,136.04885c0,0 10.36694,-8.71949 15.14659,-11.71332c3.11514,-1.95124 10.74133,-4.50212 10.74133,-4.50212c0,0 16.3999,-5.17045 24.47521,-5.62043c9.92759,-0.5532 29.62197,5.86101 29.62197,5.86101c0,0 -7.66802,2.52906 -11.14787,4.40207c-4.97136,2.67579 -15.83587,10.12172 -15.83587,10.12172c0,0 -15.11627,-3.91504 -23.97749,-3.42127c-9.48453,0.52851 -29.02387,4.87234 -29.02387,4.87234z" fill="#00ff15"/><path d="M211.56185,80.84288c0,0 -0.86803,-1.94242 -0.92436,-2.95315c-0.04712,-0.84564 0.60908,-2.70474 0.60908,-2.70474l21.2677,2.15341l21.2755,-4.52405c0,0 0.73793,1.88014 0.78884,2.79378c0.054,0.96906 -0.47356,2.86411 -0.47356,2.86411l-21.5815,-0.96743z" fill="#0b00ff"/></g><path d="M258.47539,177.27209c-1.24679,4.78312 -4.597,8.05079 -7.48291,7.29853c-2.88591,-0.75225 -4.21467,-5.23956 -2.96788,-10.02268c1.24679,-4.78312 4.597,-8.05079 7.48291,-7.29853c2.88591,0.75225 4.21467,5.23956 2.96788,10.02268z" fill="#ffffff" fill-rule="nonzero" stroke="none" stroke-width="0" stroke-linecap="butt" stroke-linejoin="miter"/></g></g></svg>